<?xml version="1.0" encoding="utf-8"?>
<!-- Generator: Adobe Illustrator 27.5.0, SVG Export Plug-In . SVG Version: 6.00 Build 0)  -->
<svg version="1.1" id="Capa_1" xmlns="http://www.w3.org/2000/svg" xmlns:xlink="http://www.w3.org/1999/xlink" x="0px" y="0px"
	 viewBox="0 0 2122 2122" style="enable-background:new 0 0 2122 2122;" xml:space="preserve">
<g>
	<g>
		<rect x="644.508" y="681.921" style="fill:#FBB05D;" width="240.782" height="260.083"/>
		<path style="fill:#EE7423;" d="M1005.72,622.827h-120.43c-16.329,0-29.552,13.233-29.552,29.542
			c0,16.319,13.223,29.552,29.552,29.552v260.083h149.977V652.369C1035.267,636.06,1022.042,622.827,1005.72,622.827z"/>
		<path style="fill:#FDC17E;" d="M855.739,652.369c0-16.309,13.223-29.542,29.552-29.542H644.508
			c-16.321,0-29.547,13.233-29.547,29.542c0,16.319,13.225,29.552,29.547,29.552h240.782
			C868.962,681.921,855.739,668.688,855.739,652.369z"/>
		<g>
			<g>
				<rect x="654.593" y="697.791" style="fill:#FDC17E;" width="218.24" height="71.101"/>
				<rect x="654.593" y="777.433" style="fill:#FDC17E;" width="218.24" height="71.105"/>
				<rect x="654.593" y="855.025" style="fill:#FDC17E;" width="218.24" height="71.098"/>
			</g>
			<path style="fill:#EE7423;" d="M804.105,718.42c0,3.527-2.855,6.377-6.378,6.377h-68.029c-3.522,0-6.377-2.85-6.377-6.377l0,0
				c0-3.523,2.855-6.377,6.377-6.377h68.029C801.25,712.042,804.105,714.897,804.105,718.42L804.105,718.42z"/>
			<path style="fill:#EE7423;" d="M804.105,799.204c0,3.517-2.855,6.377-6.378,6.377h-68.029c-3.522,0-6.377-2.86-6.377-6.377l0,0
				c0-3.528,2.855-6.378,6.377-6.378h68.029C801.25,792.826,804.105,795.676,804.105,799.204L804.105,799.204z"/>
			<path style="fill:#EE7423;" d="M804.105,879.987c0,3.523-2.855,6.375-6.378,6.375h-68.029c-3.522,0-6.377-2.853-6.377-6.375l0,0
				c0-3.525,2.855-6.384,6.377-6.384h68.029C801.25,873.602,804.105,876.462,804.105,879.987L804.105,879.987z"/>
		</g>
	</g>
	<g>
		<rect x="885.863" y="777.505" style="fill:#EE7423;" width="149.404" height="143.105"/>
		<path style="fill:#EE7423;" d="M1224.32,622.823h-119.465c-16.192,0-29.315,13.125-29.315,29.315
			c0,16.19,13.123,29.31,29.315,29.31v260.624h148.781V652.138C1253.635,635.948,1240.51,622.823,1224.32,622.823z"/>
		<path style="fill:#FDC17E;" d="M1075.539,652.138c0-16.19,13.123-29.315,29.315-29.315h-238.86
			c-16.185,0-29.31,13.125-29.31,29.315c0,16.19,13.125,29.31,29.31,29.31h238.86
			C1088.662,681.448,1075.539,668.327,1075.539,652.138z"/>
		<path style="fill:#FBB05D;" d="M865.995,681.448v260.624h238.86V681.448H865.995z M1084.986,920.61H885.863V777.505h199.124
			V920.61z"/>
		<rect x="885.863" y="694.644" style="fill:#FDC17E;" width="199.124" height="64.871"/>
		<path style="fill:#EE7423;" d="M1022.278,713.47c0,3.21-2.602,5.808-5.815,5.808h-62.073c-3.218,0-5.82-2.597-5.82-5.808l0,0
			c0-3.22,2.602-5.822,5.82-5.822h62.073C1019.677,707.648,1022.278,710.249,1022.278,713.47L1022.278,713.47z"/>
	</g>
	<g>
		<rect x="1104.031" y="681.921" style="fill:#FBB05D;" width="240.782" height="260.083"/>
		<path style="fill:#EE7423;" d="M1465.249,622.827h-120.435c-16.327,0-29.556,13.233-29.556,29.542
			c0,16.319,13.23,29.552,29.556,29.552v260.083h149.979V652.369C1494.793,636.06,1481.565,622.827,1465.249,622.827z"/>
		<path style="fill:#FDC17E;" d="M1315.257,652.369c0-16.309,13.23-29.542,29.556-29.542h-240.782
			c-16.317,0-29.547,13.233-29.547,29.542c0,16.319,13.23,29.552,29.547,29.552h240.782
			C1328.487,681.921,1315.257,668.688,1315.257,652.369z"/>
		<g>
			<g>
				<rect x="1114.124" y="697.791" style="fill:#FDC17E;" width="218.232" height="71.101"/>
				<rect x="1114.124" y="777.433" style="fill:#FDC17E;" width="218.232" height="71.105"/>
				<rect x="1114.124" y="855.025" style="fill:#FDC17E;" width="218.232" height="71.098"/>
			</g>
			<path style="fill:#EE7423;" d="M1263.628,718.42c0,3.527-2.85,6.377-6.375,6.377h-68.026c-3.527,0-6.377-2.85-6.377-6.377l0,0
				c0-3.523,2.85-6.377,6.377-6.377h68.026C1260.778,712.042,1263.628,714.897,1263.628,718.42L1263.628,718.42z"/>
			<path style="fill:#EE7423;" d="M1263.628,799.204c0,3.517-2.85,6.377-6.375,6.377h-68.026c-3.527,0-6.377-2.86-6.377-6.377l0,0
				c0-3.528,2.85-6.378,6.377-6.378h68.026C1260.778,792.826,1263.628,795.676,1263.628,799.204L1263.628,799.204z"/>
			<path style="fill:#EE7423;" d="M1263.628,879.987c0,3.523-2.85,6.375-6.375,6.375h-68.026c-3.527,0-6.377-2.853-6.377-6.375l0,0
				c0-3.525,2.85-6.384,6.377-6.384h68.026C1260.778,873.602,1263.628,876.462,1263.628,879.987L1263.628,879.987z"/>
		</g>
	</g>
	<g>
		<path style="fill:#0EACE0;" d="M752.5,616.031V495.818l0,0c0-10.392,8.423-18.814,18.814-18.814
			c10.39,0,18.818,8.421,18.818,18.814h-0.005v120.213c0,1.13,0.921,2.044,2.042,2.044c1.125,0,2.042-0.914,2.042-2.044V495.818
			c0-12.645-10.253-22.896-22.896-22.896c-12.646,0-22.892,10.251-22.892,22.896l0,0v120.213c0,1.13,0.911,2.044,2.046,2.044
			C751.587,618.075,752.5,617.161,752.5,616.031z"/>
		<g>
			<path style="fill:#D4CFCD;" d="M790.134,615.01V500.748c0-10.397-8.426-18.816-18.82-18.816
				c-10.395,0-18.819,8.419-18.819,18.816V615.01H790.134z"/>
			<path style="fill:#BCB8B1;" d="M757.165,615.01V498.047c0-11.138,8.646-16.115,14.149-16.115c10.394,0,18.82,8.419,18.82,18.816
				v-4.911c0-10.387-8.426-18.818-18.82-18.818c-10.395,0-18.819,8.431-18.819,18.818V615.01H757.165z"/>
		</g>
		<g>
			<g>
				<g>
					<path style="fill:#9B9494;" d="M782.792,506.926c0,0,0.071,5.649,0.176,14.122c0.041,8.472,0.095,19.768,0.149,31.064
						c-0.054,11.296-0.107,22.592-0.149,31.064c-0.105,8.472-0.176,14.121-0.176,14.121s-0.07-5.649-0.175-14.121
						c-0.041-8.473-0.095-19.768-0.149-31.064c0.053-11.296,0.107-22.592,0.149-31.064
						C782.721,512.575,782.792,506.926,782.792,506.926z"/>
				</g>
			</g>
			<g>
				<g>
					<path style="fill:#9B9494;" d="M771.314,487.274c0,0,0.056,4.307,0.144,10.767c0.034,6.463,0.078,15.077,0.122,23.693
						c-0.044,8.614-0.088,17.228-0.122,23.691c-0.088,6.46-0.144,10.767-0.144,10.767s-0.056-4.307-0.144-10.767
						c-0.034-6.463-0.078-15.077-0.122-23.691c0.044-8.616,0.088-17.23,0.122-23.693
						C771.257,491.581,771.314,487.274,771.314,487.274z"/>
				</g>
			</g>
			<g>
				<g>
					<path style="fill:#9B9494;" d="M761.201,524.896c0,0,0.132,22.529,0.265,45.057c-0.134,22.528-0.265,45.057-0.265,45.057
						s-0.132-22.528-0.265-45.057C761.07,547.425,761.201,524.896,761.201,524.896z"/>
				</g>
			</g>
			<g>
				<g>
					<path style="fill:#9B9494;" d="M767.16,518.863c0,0,0.132,24.036,0.266,48.075c-0.134,24.036-0.266,48.072-0.266,48.072
						s-0.131-24.036-0.265-48.072C767.029,542.899,767.16,518.863,767.16,518.863z"/>
				</g>
			</g>
			<g>
				<g>
					<path style="fill:#9B9494;" d="M777.727,518.863c0,0,0.088,6.01,0.217,15.023c0.051,9.013,0.117,21.033,0.185,33.052
						c-0.066,12.017-0.134,24.036-0.185,33.049c-0.129,9.013-0.217,15.023-0.217,15.023s-0.088-6.01-0.217-15.023
						c-0.051-9.013-0.119-21.033-0.185-33.049c0.068-12.02,0.134-24.039,0.185-33.052
						C777.64,524.872,777.727,518.863,777.727,518.863z"/>
				</g>
			</g>
			<g>
				<g>
					<path style="fill:#9B9494;" d="M786.468,576.879c0,0,0.058,2.382,0.144,5.958c0.031,3.574,0.078,8.341,0.122,13.108
						c-0.044,4.765-0.09,9.532-0.122,13.106c-0.085,3.576-0.144,5.958-0.144,5.958s-0.059-2.382-0.144-5.958
						c-0.031-3.574-0.078-8.341-0.122-13.106c0.044-4.767,0.09-9.535,0.122-13.108C786.409,579.261,786.468,576.879,786.468,576.879
						z"/>
				</g>
			</g>
			<g>
				<g>
					<path style="fill:#9B9494;" d="M755.871,504.867c0,0,0.132,25.851,0.266,51.702c-0.134,25.851-0.266,51.703-0.266,51.703
						s-0.131-25.852-0.265-51.703C755.74,530.719,755.871,504.867,755.871,504.867z"/>
				</g>
			</g>
			<g>
				<g>
					<path style="fill:#9B9494;" d="M775.326,501.574c0,0,0.126,2.326,0.216,5.815c0.051,3.488,0.117,8.141,0.185,12.791
						c-0.066,4.653-0.134,9.306-0.185,12.794c-0.09,3.488-0.216,5.815-0.216,5.815s-0.127-2.326-0.217-5.815
						c-0.051-3.488-0.119-8.141-0.185-12.794c0.068-4.65,0.134-9.303,0.185-12.791C775.199,503.9,775.326,501.574,775.326,501.574z"
						/>
				</g>
			</g>
		</g>
	</g>
	<g>
		<path style="fill:#D4CFCD;" d="M741.17,613.354V477.935c0-7.788-6.36-14.11-14.21-14.11c-7.839,0-14.202,6.322-14.202,14.11
			v135.419H741.17z"/>
		<path style="fill:#1CAD4B;" d="M712.758,614.457V474.203c0.078-7.763,6.421-14.059,14.202-14.059
			c7.786,0,14.131,6.295,14.21,14.059v140.255c0,1.993,1.624,3.617,3.627,3.617c1.993,0,3.625-1.625,3.625-3.617V472.473
			c-0.96-10.955-10.261-19.578-21.462-19.578c-11.196,0-20.497,8.623-21.452,19.578v141.984c0,1.993,1.627,3.617,3.622,3.617
			C711.131,618.075,712.758,616.45,712.758,614.457z"/>
		<g>
			<g>
				<g>
					<path style="fill:#9B9494;" d="M735.896,494.938c0,0,0.139,25.817,0.278,51.632c-0.139,25.815-0.278,51.632-0.278,51.632
						s-0.139-25.817-0.277-51.632C735.757,520.755,735.896,494.938,735.896,494.938z"/>
				</g>
			</g>
			<g>
				<g>
					<path style="fill:#9B9494;" d="M726.961,478.129c0,0,0.112,18.246,0.229,36.49c-0.117,18.243-0.229,36.489-0.229,36.489
						s-0.112-18.246-0.229-36.489C726.849,496.375,726.961,478.129,726.961,478.129z"/>
				</g>
			</g>
			<g>
				<g>
					<path style="fill:#9B9494;" d="M720.551,510.305c0,0,0.115,25.764,0.227,51.525c-0.112,25.761-0.227,51.524-0.227,51.524
						s-0.114-25.764-0.227-51.524C720.437,536.068,720.551,510.305,720.551,510.305z"/>
				</g>
			</g>
			<g>
				<g>
					<path style="fill:#9B9494;" d="M724.356,505.138c0,0,0.115,27.054,0.227,54.107c-0.112,27.055-0.227,54.109-0.227,54.109
						s-0.114-27.054-0.227-54.109C724.242,532.192,724.356,505.138,724.356,505.138z"/>
				</g>
			</g>
			<g>
				<g>
					<path style="fill:#9B9494;" d="M731.572,505.138c0,0,0.076,6.763,0.185,16.908c0.041,10.146,0.1,23.674,0.159,37.198
						c-0.058,13.527-0.115,27.055-0.159,37.201c-0.109,10.146-0.185,16.909-0.185,16.909s-0.075-6.762-0.185-16.909
						c-0.044-10.146-0.1-23.673-0.158-37.201c0.058-13.525,0.117-27.052,0.158-37.198
						C731.496,511.901,731.572,505.138,731.572,505.138z"/>
				</g>
			</g>
			<g>
				<g>
					<path style="fill:#9B9494;" d="M739.043,580.743c0,0,0.049,2.039,0.122,5.096c0.029,3.057,0.068,7.133,0.107,11.208
						c-0.039,4.077-0.078,8.153-0.107,11.21c-0.073,3.057-0.122,5.096-0.122,5.096s-0.049-2.039-0.122-5.096
						c-0.029-3.057-0.068-7.133-0.107-11.21c0.039-4.076,0.078-8.151,0.107-11.208C738.994,582.782,739.043,580.743,739.043,580.743
						z"/>
				</g>
			</g>
			<g>
				<g>
					<path style="fill:#9B9494;" d="M718.325,493.179c0,0,0.114,28.599,0.226,57.2c-0.112,28.602-0.226,57.201-0.226,57.201
						s-0.115-28.599-0.227-57.201C718.21,521.778,718.325,493.179,718.325,493.179z"/>
				</g>
			</g>
			<g>
				<g>
					<path style="fill:#9B9494;" d="M729.521,490.371c0,0,0.075,2.865,0.185,7.165c0.041,4.297,0.1,10.029,0.158,15.761
						c-0.058,5.732-0.114,11.464-0.158,15.761c-0.11,4.3-0.185,7.165-0.185,7.165s-0.075-2.865-0.185-7.165
						c-0.044-4.297-0.1-10.029-0.158-15.761c0.058-5.732,0.117-11.464,0.158-15.761
						C729.445,493.235,729.521,490.371,729.521,490.371z"/>
				</g>
			</g>
		</g>
		<path style="fill:#BCB8B1;" d="M716.695,477.328c0-10.348,7.327-13.503,10.265-13.503c7.849,0,14.21,6.322,14.21,14.11v-3.679
			c0-7.795-6.36-14.112-14.21-14.112c-7.839,0-14.202,6.317-14.202,14.112v139.097h3.937V477.328z"/>
	</g>
	<g>
		<path style="fill:#D4CFCD;" d="M700.961,615.371V495.974c0-8.546-6.979-15.469-15.579-15.469c-8.599,0-15.574,6.923-15.574,15.469
			v119.397H700.961z"/>
		<path style="fill:#EE7423;" d="M669.845,615.785V491.866v-0.012v-0.012c0.088-8.475,7.057-15.374,15.537-15.374
			c8.482,0,15.452,6.899,15.542,15.374v0.012v0.012v123.919c0,1.264,1.028,2.29,2.285,2.29c1.267,0,2.299-1.026,2.299-2.29V490.193
			c-0.448-4.972-2.738-9.569-6.455-12.977c-3.747-3.439-8.604-5.33-13.671-5.33c-5.062,0-9.917,1.891-13.668,5.33
			c-3.72,3.408-6.01,8.005-6.453,12.977v125.592c0,1.264,1.028,2.29,2.3,2.29C668.817,618.075,669.845,617.049,669.845,615.785z"/>
		<g>
			<g>
				<g>
					<path style="fill:#9B9494;" d="M695.183,522.183c0,0,0.066,3.859,0.163,9.647c0.039,5.788,0.09,13.505,0.141,21.223
						c-0.048,7.715-0.102,15.432-0.141,21.22c-0.097,5.788-0.163,9.647-0.163,9.647s-0.066-3.859-0.163-9.647
						c-0.039-5.788-0.093-13.505-0.141-21.22c0.051-7.717,0.102-15.435,0.141-21.223
						C695.117,526.041,695.183,522.183,695.183,522.183z"/>
				</g>
			</g>
			<g>
				<g>
					<path style="fill:#9B9494;" d="M685.382,496.186c0,0,0.054,4.499,0.134,11.247c0.031,6.751,0.073,15.749,0.114,24.748
						c-0.041,8.996-0.083,17.995-0.114,24.745c-0.08,6.748-0.134,11.247-0.134,11.247s-0.053-4.5-0.134-11.247
						c-0.032-6.751-0.073-15.749-0.115-24.745c0.041-8.999,0.083-17.997,0.115-24.748
						C685.329,500.685,685.382,496.186,685.382,496.186z"/>
				</g>
			</g>
			<g>
				<g>
					<path style="fill:#9B9494;" d="M678.357,539.028c0,0,0.124,19.086,0.248,38.17c-0.124,19.086-0.248,38.173-0.248,38.173
						s-0.124-19.086-0.248-38.173C678.232,558.114,678.357,539.028,678.357,539.028z"/>
				</g>
			</g>
			<g>
				<g>
					<path style="fill:#9B9494;" d="M682.522,533.362c0,0,0.124,20.502,0.249,41.006c-0.124,20.501-0.249,41.003-0.249,41.003
						s-0.124-20.502-0.248-41.003C682.398,553.863,682.522,533.362,682.522,533.362z"/>
				</g>
			</g>
			<g>
				<g>
					<path style="fill:#9B9494;" d="M690.435,533.362c0,0,0.083,5.126,0.203,12.814c0.046,7.688,0.109,17.939,0.173,28.192
						c-0.063,10.25-0.124,20.501-0.171,28.189c-0.122,7.688-0.205,12.814-0.205,12.814s-0.083-5.125-0.205-12.814
						c-0.046-7.688-0.107-17.939-0.171-28.189c0.063-10.253,0.127-20.504,0.173-28.192
						C690.352,538.487,690.435,533.362,690.435,533.362z"/>
				</g>
			</g>
			<g>
				<g>
					<path style="fill:#9B9494;" d="M698.625,564.782c0,0,0.054,3.162,0.134,7.905c0.031,4.743,0.073,11.067,0.114,17.389
						c-0.041,6.324-0.083,12.648-0.114,17.391c-0.08,4.743-0.134,7.905-0.134,7.905s-0.053-3.162-0.134-7.905
						c-0.032-4.743-0.073-11.066-0.115-17.391c0.042-6.322,0.083-12.646,0.115-17.389
						C698.571,567.944,698.625,564.782,698.625,564.782z"/>
				</g>
			</g>
			<g>
				<g>
					<path style="fill:#9B9494;" d="M675.916,520.246c0,0,0.053,4.109,0.134,10.273c0.032,6.163,0.073,14.38,0.115,22.597
						c-0.042,8.219-0.083,16.436-0.115,22.599c-0.08,6.163-0.134,10.273-0.134,10.273s-0.054-4.11-0.134-10.273
						c-0.031-6.163-0.073-14.38-0.114-22.599c0.042-8.217,0.083-16.434,0.114-22.597
						C675.862,524.356,675.916,520.246,675.916,520.246z"/>
				</g>
			</g>
			<g>
				<g>
					<path style="fill:#9B9494;" d="M688.181,517.162c0,0,0.08,2.168,0.202,5.42c0.049,3.252,0.112,7.588,0.176,11.927
						c-0.063,4.336-0.127,8.672-0.176,11.924c-0.122,3.252-0.202,5.421-0.202,5.421s-0.08-2.168-0.202-5.421
						c-0.048-3.252-0.112-7.588-0.175-11.924c0.063-4.338,0.127-8.675,0.175-11.927C688.101,519.33,688.181,517.162,688.181,517.162
						z"/>
				</g>
			</g>
		</g>
		<path style="fill:#BCB8B1;" d="M674.128,495.304c0-11.34,8.029-14.799,11.254-14.799c8.599,0,15.579,6.923,15.579,15.469v-4.037
			c0-8.546-6.979-15.469-15.579-15.469c-8.599,0-15.574,6.923-15.574,15.469v123.434h4.319V495.304z"/>
	</g>
	<g>
		<path style="fill:#65BD56;" d="M857.941,617.968c0,0-6.602,3.245-15.162,3.245c-8.565,0-15.164-3.245-15.164-3.245V512.984
			c0,0,3.647-1.79,15.164-1.79c11.518,0,15.162,1.79,15.162,1.79V617.968z"/>
		<path style="fill:#86C555;" d="M850.182,534.39c0,4.083-3.318,7.396-7.403,7.396c-4.088,0-7.403-3.313-7.403-7.396
			c0-4.091,3.315-7.408,7.403-7.408C846.864,526.982,850.182,530.299,850.182,534.39z"/>
		<path style="fill:#86C555;" d="M842.779,516.105c-11.518,0-15.164,1.793-15.164,1.793v7.169c0,0,3.647-1.797,15.164-1.797
			c11.518,0,15.162,1.797,15.162,1.797v-7.169C857.941,517.898,854.297,516.105,842.779,516.105z"/>
		<path style="fill:#86C555;" d="M842.779,610.05c-11.518,0-15.164-1.793-15.164-1.793v-7.167c0,0,3.647,1.796,15.164,1.796
			c11.518,0,15.162-1.796,15.162-1.796v7.167C857.941,608.257,854.297,610.05,842.779,610.05z"/>
		<path style="fill:#86C555;" d="M842.779,616.606c-11.518,0-15.164-1.798-15.164-1.798v-3.581c0,0,3.647,1.791,15.164,1.791
			c11.518,0,15.162-1.791,15.162-1.791v3.581C857.941,614.808,854.297,616.606,842.779,616.606z"/>
	</g>
	<g>
		<path style="fill:#8E9295;" d="M984.605,617.388c0,0-7.768,3.825-17.861,3.825c-10.085,0-17.856-3.825-17.856-3.825V493.735
			c0,0,4.295-2.112,17.856-2.112c13.574,0,17.861,2.112,17.861,2.112V617.388z"/>
		<path style="fill:#AEB0AF;" d="M984.605,508.66c0,0-1.213-0.599-4.404-1.162c-1.939-3.232-7.226-5.542-13.457-5.542
			c-6.219,0-11.513,2.309-13.452,5.542c-3.184,0.563-4.404,1.162-4.404,1.162v8.441c0,0,1.861-0.914,6.987-1.537
			c2.609,1.793,6.514,2.928,10.87,2.928c4.368,0,8.268-1.135,10.874-2.928c5.13,0.624,6.987,1.537,6.987,1.537V508.66z"/>
		<path style="fill:#AEB0AF;" d="M966.744,608.063c-13.561,0-17.856-2.115-17.856-2.115v-8.438c0,0,4.295,2.112,17.856,2.112
			c13.574,0,17.861-2.112,17.861-2.112v8.438C984.605,605.948,980.318,608.063,966.744,608.063z"/>
		<path style="fill:#AEB0AF;" d="M966.744,615.785c-13.561,0-17.856-2.114-17.856-2.114v-4.224c0,0,4.295,2.107,17.856,2.107
			c13.574,0,17.861-2.107,17.861-2.107v4.224C984.605,613.67,980.318,615.785,966.744,615.785z"/>
	</g>
	<g>
		<path style="fill:#213364;" d="M888.265,617.968c0,0-6.602,3.245-15.162,3.245c-8.563,0-15.162-3.245-15.162-3.245V464.032
			c0,0,3.644-1.79,15.162-1.79c11.515,0,15.162,1.79,15.162,1.79V617.968z"/>
		<path style="fill:#354E85;" d="M873.103,467.155c-11.518,0-15.162,1.793-15.162,1.793v7.169c0,0,3.644-1.79,15.162-1.79
			c11.515,0,15.162,1.79,15.162,1.79v-7.169C888.265,468.948,884.618,467.155,873.103,467.155z"/>
		<path style="fill:#354E85;" d="M873.103,610.05c-11.518,0-15.162-1.793-15.162-1.793v-7.167c0,0,3.644,1.796,15.162,1.796
			c11.515,0,15.162-1.796,15.162-1.796v7.167C888.265,608.257,884.618,610.05,873.103,610.05z"/>
		<path style="fill:#354E85;" d="M873.103,616.606c-11.518,0-15.162-1.798-15.162-1.798v-3.581c0,0,3.644,1.791,15.162,1.791
			c11.515,0,15.162-1.791,15.162-1.791v3.581C888.265,614.808,884.618,616.606,873.103,616.606z"/>
	</g>
	<g>
		<path style="fill:#F68732;" d="M948.888,617.968c0,0-6.599,3.245-15.16,3.245c-8.565,0-15.166-3.245-15.166-3.245V512.984
			c0,0,3.642-1.79,15.166-1.79c11.515,0,15.16,1.79,15.16,1.79V617.968z"/>
		<path style="fill:#FBB57E;" d="M933.728,523.866c-11.524,0-15.166,1.786-15.166,1.786v7.174c0,0,3.642-1.798,15.166-1.798
			c11.515,0,15.16,1.798,15.16,1.798v-7.174C948.888,525.652,945.243,523.866,933.728,523.866z"/>
		<path style="fill:#FBB57E;" d="M933.728,551.174c-11.524,0-15.166,1.796-15.166,1.796v33.671c0,0,3.642,1.235,15.166,1.235
			c11.515,0,15.16-1.235,15.16-1.235v-33.671C948.888,552.969,945.243,551.174,933.728,551.174z"/>
		<path style="fill:#FBB57E;" d="M933.728,517.311c-11.524,0-15.166,1.79-15.166,1.79v3.584c0,0,3.642-1.793,15.166-1.793
			c11.515,0,15.16,1.793,15.16,1.793v-3.584C948.888,519.101,945.243,517.311,933.728,517.311z"/>
	</g>
	<g>
		<path style="fill:#0EABE2;" d="M918.562,617.968c0,0-6.597,3.245-15.155,3.245c-8.565,0-15.172-3.245-15.172-3.245v-140.06
			c0,0,3.644-1.791,15.172-1.791c11.508,0,15.155,1.791,15.155,1.791V617.968z"/>
		<path style="fill:#46BEE8;" d="M903.407,481.033c-11.527,0-15.172,1.788-15.172,1.788v7.167c0,0,3.644-1.788,15.172-1.788
			c11.508,0,15.155,1.788,15.155,1.788v-7.167C918.562,482.821,914.915,481.033,903.407,481.033z"/>
	</g>
	<g>
		<path style="fill:#F15545;" d="M1136.962,541.557c0,0,3.856,7.829,3.856,17.992c0,10.166-3.856,17.993-3.856,17.993h-124.581
			c0,0-2.129-4.321-2.129-17.993c0-13.671,2.129-17.992,2.129-17.992H1136.962z"/>
		<path style="fill:#D53928;" d="M1037.774,550.762c4.85,0,8.789,3.934,8.789,8.787c0,4.855-3.939,8.785-8.789,8.785
			c-4.852,0-8.782-3.929-8.782-8.785C1028.992,554.697,1032.921,550.762,1037.774,550.762z"/>
		<path style="fill:#D53928;" d="M1016.081,559.549c0,13.671,2.131,17.993,2.131,17.993h8.507c0,0-2.127-4.321-2.127-17.993
			c0-13.671,2.127-17.992,2.127-17.992h-8.507C1018.212,541.557,1016.081,545.878,1016.081,559.549z"/>
		<path style="fill:#D53928;" d="M1127.568,559.549c0,13.671-2.129,17.993-2.129,17.993h-8.509c0,0,2.134-4.321,2.134-17.993
			c0-13.671-2.134-17.992-2.134-17.992h8.509C1125.439,541.557,1127.568,545.878,1127.568,559.549z"/>
		<path style="fill:#D53928;" d="M1135.346,559.549c0,13.671-2.129,17.993-2.129,17.993h-4.249c0,0,2.127-4.321,2.127-17.993
			c0-13.671-2.127-17.992-2.127-17.992h4.249C1133.218,541.557,1135.346,545.878,1135.346,559.549z"/>
	</g>
	<g>
		<path style="fill:#662D91;" d="M1147.892,577.542c0,0,4.541,9.225,4.541,21.193c0,11.971-4.541,21.196-4.541,21.196h-146.747
			c0,0-2.5-5.096-2.5-21.196c0-16.097,2.5-21.193,2.5-21.193H1147.892z"/>
		<path style="fill:#7751A1;" d="M1018.858,577.542c0,0-0.713,1.447-1.376,5.223c-3.832,2.311-6.582,8.582-6.582,15.97
			c0,7.391,2.75,13.666,6.582,15.973c0.663,3.776,1.376,5.223,1.376,5.223h10.019c0,0-1.082-2.202-1.822-8.285
			c2.119-3.108,3.469-7.737,3.469-12.911c0-5.172-1.349-9.802-3.469-12.906c0.74-6.085,1.822-8.287,1.822-8.287H1018.858z"/>
		<path style="fill:#7751A1;" d="M1136.82,598.735c0,16.1-2.501,21.196-2.501,21.196h-10.024c0,0,2.509-5.096,2.509-21.196
			c0-16.097-2.509-21.193-2.509-21.193h10.024C1134.319,577.542,1136.82,582.638,1136.82,598.735z"/>
		<path style="fill:#7751A1;" d="M1145.985,598.735c0,16.1-2.509,21.196-2.509,21.196h-5.006c0,0,2.505-5.096,2.505-21.196
			c0-16.097-2.505-21.193-2.505-21.193h5.006C1143.475,577.542,1145.985,582.638,1145.985,598.735z"/>
	</g>
	<g>
		<path style="fill:#F15545;" d="M1378.102,617.295c0,0-7.829,3.861-17.992,3.861c-10.163,0-17.992-3.861-17.992-3.861V492.704
			c0,0,4.321-2.124,17.992-2.124c13.668,0,17.992,2.124,17.992,2.124V617.295z"/>
		<ellipse style="fill:#D53928;" cx="1360.109" cy="518.105" rx="8.784" ry="8.787"/>
		<path style="fill:#D53928;" d="M1360.109,496.41c-13.671,0-17.992,2.131-17.992,2.131v8.507c0,0,4.321-2.127,17.992-2.127
			c13.668,0,17.992,2.127,17.992,2.127v-8.507C1378.102,498.541,1373.778,496.41,1360.109,496.41z"/>
		<path style="fill:#D53928;" d="M1360.109,607.899c-13.671,0-17.992-2.126-17.992-2.126v-8.507c0,0,4.321,2.124,17.992,2.124
			c13.668,0,17.992-2.124,17.992-2.124v8.507C1378.102,605.773,1373.778,607.899,1360.109,607.899z"/>
		<path style="fill:#D53928;" d="M1360.109,615.675c-13.671,0-17.992-2.129-17.992-2.129v-4.256c0,0,4.321,2.126,17.992,2.126
			c13.668,0,17.992-2.126,17.992-2.126v4.256C1378.102,613.546,1373.778,615.675,1360.109,615.675z"/>
	</g>
	<g>
		<path style="fill:#662D91;" d="M1342.117,616.606c0,0-9.228,4.55-21.194,4.55c-11.971,0-21.193-4.55-21.193-4.55V469.867
			c0,0,5.091-2.509,21.193-2.509c16.098,0,21.194,2.509,21.194,2.509V616.606z"/>
		<path style="fill:#7751A1;" d="M1342.117,487.579c0,0-1.447-0.716-5.228-1.379c-2.297-3.832-8.58-6.58-15.966-6.58
			c-7.391,0-13.668,2.748-15.968,6.58c-3.778,0.663-5.225,1.379-5.225,1.379v10.012c0,0,2.197-1.087,8.287-1.827
			c3.099,2.127,7.734,3.478,12.906,3.478c5.174,0,9.802-1.352,12.901-3.478c6.088,0.74,8.293,1.827,8.293,1.827V487.579z"/>
		<path style="fill:#7751A1;" d="M1320.923,605.541c-16.102,0-21.193-2.509-21.193-2.509v-10.017c0,0,5.091,2.512,21.193,2.512
			c16.098,0,21.194-2.512,21.194-2.512v10.017C1342.117,603.032,1337.021,605.541,1320.923,605.541z"/>
		<path style="fill:#7751A1;" d="M1320.923,614.701c-16.102,0-21.193-2.509-21.193-2.509v-5.006c0,0,5.091,2.501,21.193,2.501
			c16.098,0,21.194-2.501,21.194-2.501v5.006C1342.117,612.192,1337.021,614.701,1320.923,614.701z"/>
	</g>
	<g>
		<path style="fill:#FDB933;" d="M1227.784,617.295c0,0-7.835,3.861-17.993,3.861c-10.163,0-17.997-3.861-17.997-3.861V453.609
			c0,0,4.329-2.124,17.997-2.124c13.669,0,17.993,2.124,17.993,2.124V617.295z"/>
		<path style="fill:#FFC95F;" d="M1209.792,457.316c-13.668,0-17.997,2.127-17.997,2.127v8.512c0,0,4.329-2.129,17.997-2.129
			c13.669,0,17.993,2.129,17.993,2.129v-8.512C1227.784,459.443,1223.46,457.316,1209.792,457.316z"/>
		<path style="fill:#FFC95F;" d="M1209.792,607.899c-13.668,0-17.997-2.126-17.997-2.126v-8.507c0,0,4.329,2.124,17.997,2.124
			c13.669,0,17.993-2.124,17.993-2.124v8.507C1227.784,605.773,1223.46,607.899,1209.792,607.899z"/>
		<path style="fill:#FFC95F;" d="M1209.792,615.675c-13.668,0-17.997-2.129-17.997-2.129v-4.251c0,0,4.329,2.124,17.997,2.124
			c13.669,0,17.993-2.124,17.993-2.124v4.251C1227.784,613.546,1223.46,615.675,1209.792,615.675z"/>
	</g>
	<g>
		<path style="fill:#F68732;" d="M1299.73,617.295c0,0-7.832,3.861-17.998,3.861c-10.158,0-17.995-3.861-17.995-3.861V492.704
			c0,0,4.327-2.124,17.995-2.124c13.671,0,17.998,2.124,17.998,2.124V617.295z"/>
		<path style="fill:#FBB57E;" d="M1281.732,505.615c-13.668,0-17.995,2.127-17.995,2.127v8.506c0,0,4.327-2.126,17.995-2.126
			c13.671,0,17.998,2.126,17.998,2.126v-8.506C1299.73,507.742,1295.404,505.615,1281.732,505.615z"/>
		<path style="fill:#FBB57E;" d="M1281.732,538.022c-13.668,0-17.995,2.124-17.995,2.124v39.965c0,0,4.327,1.474,17.995,1.474
			c13.671,0,17.998-1.474,17.998-1.474v-39.965C1299.73,540.146,1295.404,538.022,1281.732,538.022z"/>
		<path style="fill:#FBB57E;" d="M1281.732,497.845c-13.668,0-17.995,2.126-17.995,2.126v4.246c0,0,4.327-2.127,17.995-2.127
			c13.671,0,17.998,2.127,17.998,2.127v-4.246C1299.73,499.971,1295.404,497.845,1281.732,497.845z"/>
	</g>
	<g>
		<path style="fill:#148CAF;" d="M1263.738,617.295c0,0-7.827,3.861-17.99,3.861c-10.163,0-17.995-3.861-17.995-3.861V470.078
			c0,0,4.329-2.124,17.995-2.124c13.666,0,17.99,2.124,17.99,2.124V617.295z"/>
		<path style="fill:#4FC6DF;" d="M1245.747,473.781c-13.666,0-17.995,2.124-17.995,2.124v8.509c0,0,4.329-2.124,17.995-2.124
			c13.666,0,17.99,2.124,17.99,2.124v-8.509C1263.738,475.905,1259.414,473.781,1245.747,473.781z"/>
	</g>
	<g>
		<polygon style="fill:#B94033;" points="1465.719,942.452 1376.859,942.072 1361.63,828.594 1481.273,828.594 		"/>
		<path style="fill:#F15545;" d="M1485.312,828.594v-20.295c0-4.117-3.342-7.461-7.461-7.461h-112.805
			c-4.117,0-7.46,3.345-7.46,7.461v20.295H1485.312z"/>
		<g>
			<g>
				<path style="fill:#71AD5E;" d="M1379.912,800.838h84.128c12.436-57.239,21.617-133.307-45.617-133.307
					C1369.517,667.531,1352.304,714.508,1379.912,800.838z"/>
			</g>
			<g>
				<path style="fill:#42833C;" d="M1384.489,787.011c0.468,4.609,0.935,9.218,1.391,13.827h2.273
					c-1.873-19.6-3.791-39.194-5.335-58.833c-1.053-13.33-1.981-26.736,1.023-40.36c2.412-10.945,7.618-26.648,30.19-32.938
					c-11.425,12.718-13.33,25.788-15.627,38.891c-3.016,17.208-1.33,34.216,0.438,51.03c1.486,14.073,2.964,28.144,4.455,42.209
					h1.886c-1.644-14.818-3.023-29.661-4.592-44.487c-1.861-17.51-2.855-35.074,0.392-52.981
					c2.082-11.513,4.397-22.855,14.082-34.024c1.442,15.091,4.098,30.06,5.559,45.156c2.231,23.089,3.912,46.234,5.199,69.417
					c0.314,5.637,0.614,11.274,0.886,16.918h2.302c-0.928-18.855-2.107-37.683-3.389-56.501c-1.369-20.161-2.75-40.343-5.873-60.304
					c-0.782-5.028-1.401-10.132-3.41-14.977c12.489,6.69,14.877,17.645,17.281,26.981c2.779,10.819,4.292,21.825,5.741,32.816
					c1.605,12.173,3.578,24.382,4.127,36.67c0.531,11.763,0.967,23.537,1.374,35.315h2.188c-0.41-9.554-0.814-19.115-1.235-28.667
					c-0.85-19.247-3.588-38.355-6.663-57.351c-1.817-11.237-3.542-22.713-9.003-33.374c-2.497-4.869-6.212-9.474-12.794-12.969
					c18.538,1.474,28.209,9.997,33.547,18.534c6.604,10.543,8.202,22.248,9.162,33.685c1.532,18.224,1.408,36.67,1.376,55.038
					c-0.01,8.362-0.124,16.73-0.265,25.106h2.865c0.005-0.585,0.01-1.172,0.015-1.754c0.146-19.142,0.268-38.277-0.614-57.325
					c-0.972-20.881,1.135-44.131-16.758-62.097c-5.832-5.854-15.084-10.942-28.26-12.131c-2.139,0.131-4.368,0.353-6.68,0.658
					c-13.101,3.564-20.002,11.696-24.026,18.455c-6.219,10.458-7.335,21.327-7.725,31.717c-0.353,9.315,0.585,18.502,1.174,27.729
					C1382.029,759.759,1383.12,773.398,1384.489,787.011z"/>
			</g>
		</g>
	</g>
	<g>
		<g>
			<path style="fill:#71AD5E;" d="M1613.417,751.274c-0.29-0.178-0.65-0.171-0.964,0.02c-18.792,11.539-36.151,28.523-50.192,49.118
				c-6.679,9.8-12.065,19.649-16.121,29.457c-3.03,7.32-6.636,28.078-7.091,46.119h1.946c0.551-16.024,4.015-38.263,6.906-45.303
				c5.352-13.02,13.062-26.022,23.057-38.862c12.619-16.2,26.908-29.264,42.492-38.826c0.304-0.185,0.475-0.489,0.475-0.838
				C1613.924,751.798,1613.725,751.452,1613.417,751.274z"/>
			<path style="fill:#71AD5E;" d="M1610.914,753.421c6.538-23.902,30.563-27.898,49.666-38.728
				C1650.185,730.576,1631.342,750.595,1610.914,753.421L1610.914,753.421z"/>
			<path style="fill:#71AD5E;" d="M1582.28,777.089c-0.536-13.227-0.984-24.253,2.543-37.763
				c3.439-13.174,8.989-26.102,16.926-37.249l0,0l0,0c-0.443,5.323,2.368,11.944,2.594,17.454c0.504,7.05-1.094,13.851-3.028,20.558
				c-2.996,10.395-7.148,19.727-13.642,28.387L1582.28,777.089z"/>
			<path style="fill:#689F41;" d="M1600.271,761.123c16.116,13.369,45.139,4.673,62.308,0.546
				c-13.985-4.397-33.491-3.488-47.924-2.57L1600.271,761.123z"/>
			<path style="fill:#71AD5E;" d="M1576.804,783.498c14.86,17.727,43.366,23.41,64.962,14.024c0,0-12.931-5.547-18.336-8.197
				c-7.756-3.33-16.236-5.411-24.528-5.625L1576.804,783.498z"/>
			<path style="fill:#42833C;" d="M1571.99,788.943c-9.223-12.1-12.604-34.443-7.678-48.998c3.391,4.611,4.472,12.185,6.134,17.749
				c2.904,8.826,3.892,16.741,2.621,26.18L1571.99,788.943z"/>
			<path style="fill:#689F41;" d="M1565.786,797.145c10.609,10.906,23.685,11.276,38.326,7.561c0,0-10.212-5.323-14.989-6.802
				c-4.426-1.523-9.802-2.212-14.638-1.567L1565.786,797.145z"/>
			<path style="fill:#689F41;" d="M1557.462,809.364c-0.441,8.431,4.336,13.892,11.366,18.46c0,0-1.676-6.17-2.879-8.67
				c-1.045-2.378-2.787-4.826-4.877-6.556L1557.462,809.364z"/>
			<path style="fill:#42833C;" d="M1556.575,811.245c-7.783,3.284-14.541,0.643-21.223-4.424c0,0,6.372-0.509,9.132-0.232
				c2.592,0.181,5.488,0.987,7.822,2.365L1556.575,811.245z"/>
			<path style="fill:#689F41;" d="M1586.846,772.646c9.943,10.86,45.476,9.8,58.567,5.946c0,0-16.828-4.606-33.281-6.755
				C1595.679,769.693,1586.846,772.646,1586.846,772.646z"/>
			<path style="fill:#689F41;" d="M1603.547,758.468c-2.058-12.343,7.362-36.046,15.376-49.673
				c1.813,10.74-2.626,36.134-14.392,48.959L1603.547,758.468z"/>
			<path style="fill:#71AD5E;" d="M1560.064,805.593c-5.035-3.966-8.526-12-10.068-19.396c-2.297-10.472-2.862-21.264-1.805-31.995
				c8.548,11.454,14.331,36.55,12.295,50.679L1560.064,805.593z"/>
			<path style="fill:#42833C;" d="M1559.289,806.689c12.906,12.716,30.078,18.081,48.182,5.321
				c-7.13-0.836-18.151-3.44-27.841-4.047C1569.932,807.357,1559.289,806.689,1559.289,806.689z"/>
			<path style="fill:#689F41;" d="M1557.749,808.884c-10.309-0.887-17.965-12.475-20.959-21.296
				c6.801,3.079,15.44,10.027,18.394,16.724L1557.749,808.884z"/>
		</g>
		<g>
			<path style="fill:#71AD5E;" d="M1501.314,819.31c-0.677,11.732-0.156,45.954-2.833,56.677h2.968
				c2.616-10.672,2.046-44.901,2.704-56.677c0.809-14.509,0.122-29.814-2.056-45.807c-4.906-36.056-16.5-69.554-33.525-96.881
				c-0.277-0.443-0.745-0.691-1.242-0.655c-0.511,0.041-0.994,0.368-1.233,0.833c-0.226,0.451-0.2,0.965,0.073,1.405
				c14.112,22.646,24.263,49.03,30.175,78.411C1500.79,778.731,1502.449,799.701,1501.314,819.31z"/>
			<path style="fill:#71AD5E;" d="M1469.2,680.41c7.055-35.481-21.715-56.36-39.61-82.966
				C1432.808,624.974,1444.365,663.407,1469.2,680.41L1469.2,680.41z"/>
			<path style="fill:#71AD5E;" d="M1491.158,729.991c9.335-16.928,17.111-31.032,21.303-50.978c4.1-19.445,5.289-39.944,2.19-59.678
				l0,0l0,0c-2.889,7.235-10.88,14.049-14.767,21.106c-5.262,8.869-7.605,18.797-9.452,28.816
				c-2.86,15.532-3.535,30.426-0.702,45.97L1491.158,729.991z"/>
			<path style="fill:#689F41;" d="M1478.077,697.416c-29.766,6.948-61.997-23.335-81.729-39.919
				c21.13,3.371,46.021,17.283,64.262,27.895L1478.077,697.416z"/>
			<path style="fill:#71AD5E;" d="M1494.13,741.935c-30.962,13.461-71.897,2.29-93.977-24.046c0,0,20.501,1.186,29.291,1.252
				c12.297,0.714,24.733,3.523,35.697,8.648L1494.13,741.935z"/>
			<path style="fill:#42833C;" d="M1496.876,752.188c19.927-9.795,38.918-36.764,41.975-58.993
				c-7.44,3.813-13.788,13.001-19.59,19.182c-9.544,9.637-15.993,19.325-20.485,32.484L1496.876,752.188z"/>
			<path style="fill:#689F41;" d="M1499.626,766.941c-20.967,7.327-38.285-0.716-54.984-15.113c0,0,16.811-0.295,24.008,0.892
				c6.777,0.899,14.245,3.498,20.146,7.5L1499.626,766.941z"/>
			<path style="fill:#689F41;" d="M1502.527,788.324c-4.919,11.303-14.721,15.325-26.887,16.699c0,0,6.222-6.958,9.42-9.445
				c2.918-2.419,6.792-4.482,10.648-5.376L1502.527,788.324z"/>
			<path style="fill:#42833C;" d="M1502.459,791.364c8.024,9.359,18.575,10.321,30.606,8.066c0,0-7.993-4.828-11.779-6.261
				c-3.503-1.462-7.807-2.292-11.756-2.017L1502.459,791.364z"/>
			<path style="fill:#689F41;" d="M1488.094,721.214c-20.061,7.695-65.77-16.85-80.367-30.421c0,0,24.991,4.95,47.87,12.879
				C1478.481,711.596,1488.094,721.214,1488.094,721.214z"/>
			<path style="fill:#689F41;" d="M1475.529,691.804c10.735-14.777,13.895-51.868,12.309-74.896
				c-9.366,12.848-20.126,48.901-13.13,73.322L1475.529,691.804z"/>
			<path style="fill:#71AD5E;" d="M1501.589,781.71c9.167-1.898,18.965-10.122,25.802-18.767
				c9.822-12.185,17.603-25.912,23.22-40.613c-18.636,9.391-42.553,38.389-49.108,58.17L1501.589,781.71z"/>
			<path style="fill:#42833C;" d="M1501.887,783.644c-25.145,8.192-51.069,4-66.392-24.477c9.847,3.566,25.946,7.347,39.006,12.877
				C1487.553,777.574,1501.887,783.644,1501.887,783.644z"/>
			<path style="fill:#689F41;" d="M1502.469,787.513c14.044,5.561,31.598-4.572,41.259-14.141
				c-10.889-0.419-26.706,3.03-34.933,9.842L1502.469,787.513z"/>
		</g>
		<polygon style="fill:#F68D3F;" points="1555.265,942.452 1486.605,942.157 1474.834,854.475 1567.279,854.475 		"/>
		<path style="fill:#FBB05D;" d="M1570.402,854.475v-15.681c0-3.184-2.582-5.766-5.764-5.766h-87.161
			c-3.184,0-5.766,2.582-5.766,5.766v15.681H1570.402z"/>
	</g>
	<g>
		<g>
			<path style="fill:#0EACE0;" d="M731.209,734.617h-122.42v0.002c-10.582,0-19.157-8.575-19.157-19.159
				c0-10.577,8.575-19.159,19.157-19.159l0,0h122.42c1.145,0,2.078-0.926,2.078-2.075c0-1.148-0.933-2.078-2.078-2.078h-122.42
				c-12.872,0-23.311,10.438-23.311,23.313c0,12.875,10.438,23.313,23.311,23.313l0,0h122.42c1.145,0,2.078-0.928,2.078-2.083
				C733.287,735.545,732.354,734.617,731.209,734.617z"/>
			<g>
				<path style="fill:#D4CFCD;" d="M730.166,696.296H613.812c-10.582,0-19.157,8.58-19.157,19.164
					c0,10.585,8.575,19.164,19.157,19.164h116.355V696.296z"/>
				<path style="fill:#BCB8B1;" d="M730.166,729.867H611.062c-11.34,0-16.407-8.804-16.407-14.407
					c0-10.585,8.575-19.164,19.157-19.164h-4.996c-10.585,0-19.164,8.58-19.164,19.164c0,10.585,8.58,19.164,19.164,19.164h121.351
					V729.867z"/>
			</g>
			<g>
				<g>
					<g>
						<path style="fill:#9B9494;" d="M620.109,703.772c0,0,5.752-0.07,14.378-0.178c8.626-0.041,20.129-0.097,31.632-0.154
							c11.501,0.056,23.003,0.112,31.629,0.154c8.627,0.107,14.378,0.178,14.378,0.178s-5.751,0.071-14.378,0.178
							c-8.626,0.042-20.129,0.097-31.629,0.153c-11.503-0.056-23.006-0.112-31.632-0.153
							C625.86,703.843,620.109,703.772,620.109,703.772z"/>
					</g>
				</g>
				<g>
					<g>
						<path style="fill:#9B9494;" d="M600.097,715.46c0,0,4.385-0.058,10.965-0.146c6.579-0.034,15.349-0.08,24.121-0.124
							c8.772,0.044,17.542,0.09,24.122,0.124c6.579,0.088,10.964,0.146,10.964,0.146s-4.385,0.058-10.964,0.146
							c-6.58,0.034-15.35,0.08-24.122,0.124c-8.772-0.044-17.542-0.09-24.121-0.124C604.482,715.518,600.097,715.46,600.097,715.46z
							"/>
					</g>
				</g>
				<g>
					<g>
						<path style="fill:#9B9494;" d="M638.408,725.757c0,0,22.94-0.137,45.878-0.27c22.94,0.134,45.88,0.27,45.88,0.27
							s-22.94,0.136-45.88,0.27C661.348,725.893,638.408,725.757,638.408,725.757z"/>
					</g>
				</g>
				<g>
					<g>
						<path style="fill:#9B9494;" d="M632.252,719.692c0,0,24.477-0.137,48.957-0.27c24.479,0.134,48.957,0.27,48.957,0.27
							s-24.477,0.136-48.957,0.27C656.73,719.828,632.252,719.692,632.252,719.692z"/>
					</g>
				</g>
				<g>
					<g>
						<path style="fill:#9B9494;" d="M632.252,708.929c0,0,6.12-0.087,15.298-0.219c9.179-0.054,21.42-0.122,33.659-0.19
							c12.238,0.068,24.479,0.136,33.659,0.188c9.179,0.134,15.298,0.222,15.298,0.222s-6.12,0.088-15.298,0.222
							c-9.179,0.051-21.42,0.119-33.659,0.188c-12.239-0.068-24.48-0.137-33.659-0.19
							C638.372,709.017,632.252,708.929,632.252,708.929z"/>
					</g>
				</g>
				<g>
					<g>
						<path style="fill:#9B9494;" d="M691.336,700.032c0,0,2.426-0.058,6.066-0.146c3.642-0.034,8.497-0.078,13.349-0.124
							c4.852,0.044,9.708,0.09,13.35,0.124c3.64,0.088,6.066,0.146,6.066,0.146s-2.426,0.058-6.066,0.146
							c-3.642,0.034-8.497,0.08-13.35,0.124c-4.853-0.046-9.707-0.09-13.349-0.124C693.762,700.091,691.336,700.032,691.336,700.032
							z"/>
					</g>
				</g>
				<g>
					<g>
						<path style="fill:#9B9494;" d="M618.004,731.185c0,0,26.321-0.137,52.645-0.27c26.324,0.134,52.645,0.27,52.645,0.27
							s-26.321,0.136-52.645,0.27C644.325,731.321,618.004,731.185,618.004,731.185z"/>
					</g>
				</g>
				<g>
					<g>
						<path style="fill:#9B9494;" d="M614.66,711.372c0,0,2.368-0.129,5.919-0.219c3.552-0.053,8.287-0.122,13.023-0.19
							c4.735,0.068,9.474,0.137,13.026,0.188c3.552,0.093,5.919,0.222,5.919,0.222s-2.368,0.129-5.919,0.221
							c-3.552,0.051-8.29,0.119-13.026,0.188c-4.736-0.068-9.471-0.136-13.023-0.19C617.027,711.502,614.66,711.372,614.66,711.372z
							"/>
					</g>
				</g>
			</g>
		</g>
		<g>
			<path style="fill:#D4CFCD;" d="M738.673,746.154H600.779c-7.931,0-14.368,6.48-14.368,14.468c0,7.99,6.436,14.465,14.368,14.465
				h137.894V746.154z"/>
			<path style="fill:#1CAD4B;" d="M739.791,775.087h-142.81c-7.91-0.083-14.316-6.539-14.316-14.465
				c0-7.927,6.406-14.383,14.316-14.468h142.81c2.034,0,3.69-1.652,3.69-3.693c0-2.034-1.656-3.688-3.69-3.688H595.215
				c-11.152,0.972-19.934,10.443-19.934,21.849c0,11.403,8.782,20.876,19.934,21.849l144.576,0.002c2.034,0,3.69-1.659,3.69-3.693
				C743.482,776.743,741.825,775.087,739.791,775.087z"/>
			<g>
				<g>
					<g>
						<path style="fill:#9B9494;" d="M618.094,751.52c0,0,26.288-0.141,52.575-0.282c26.287,0.141,52.574,0.282,52.574,0.282
							s-26.287,0.142-52.574,0.283C644.382,751.662,618.094,751.52,618.094,751.52z"/>
					</g>
				</g>
				<g>
					<g>
						<path style="fill:#9B9494;" d="M600.981,760.622c0,0,18.577-0.117,37.157-0.232c18.577,0.114,37.154,0.232,37.154,0.232
							s-18.577,0.117-37.154,0.231C619.558,760.738,600.981,760.622,600.981,760.622z"/>
					</g>
				</g>
				<g>
					<g>
						<path style="fill:#9B9494;" d="M633.743,767.152c0,0,26.232-0.114,52.465-0.231c26.234,0.117,52.465,0.231,52.465,0.231
							s-26.231,0.115-52.465,0.232C659.975,767.267,633.743,767.152,633.743,767.152z"/>
					</g>
				</g>
				<g>
					<g>
						<path style="fill:#9B9494;" d="M628.479,763.279c0,0,27.549-0.115,55.095-0.232c27.549,0.117,55.098,0.232,55.098,0.232
							s-27.549,0.114-55.098,0.232C656.028,763.394,628.479,763.279,628.479,763.279z"/>
					</g>
				</g>
				<g>
					<g>
						<path style="fill:#9B9494;" d="M628.479,755.932c0,0,6.886-0.075,17.217-0.188c10.331-0.044,24.105-0.102,37.878-0.163
							c13.776,0.058,27.549,0.117,37.88,0.163c10.331,0.112,17.218,0.188,17.218,0.188s-6.887,0.076-17.218,0.188
							c-10.331,0.046-24.104,0.105-37.88,0.163c-13.773-0.061-27.547-0.119-37.878-0.163
							C635.366,756.008,628.479,755.932,628.479,755.932z"/>
					</g>
				</g>
				<g>
					<g>
						<path style="fill:#9B9494;" d="M705.467,748.317c0,0,2.075-0.049,5.188-0.124c3.114-0.029,7.262-0.068,11.413-0.107
							c4.151,0.039,8.302,0.078,11.415,0.107c3.114,0.073,5.189,0.124,5.189,0.124s-2.075,0.051-5.189,0.124
							c-3.113,0.029-7.264,0.068-11.415,0.107c-4.151-0.039-8.299-0.078-11.413-0.107
							C707.543,748.366,705.467,748.317,705.467,748.317z"/>
					</g>
				</g>
				<g>
					<g>
						<path style="fill:#9B9494;" d="M616.297,769.418c0,0,29.125-0.114,58.25-0.231c29.127,0.117,58.253,0.231,58.253,0.231
							s-29.125,0.115-58.253,0.232C645.422,769.532,616.297,769.418,616.297,769.418z"/>
					</g>
				</g>
				<g>
					<g>
						<path style="fill:#9B9494;" d="M613.436,758.017c0,0,2.919-0.075,7.296-0.188c4.378-0.044,10.214-0.102,16.051-0.163
							c5.837,0.058,11.674,0.117,16.051,0.163c4.377,0.112,7.296,0.188,7.296,0.188s-2.919,0.075-7.296,0.188
							c-4.377,0.046-10.214,0.105-16.051,0.163c-5.837-0.061-11.673-0.119-16.051-0.163
							C616.355,758.093,613.436,758.017,613.436,758.017z"/>
					</g>
				</g>
			</g>
			<path style="fill:#BCB8B1;" d="M600.163,771.077c-10.541,0-13.752-7.461-13.752-10.455c0-7.988,6.436-14.468,14.368-14.468
				h-3.749c-7.935,0-14.365,6.48-14.365,14.468c0,7.99,6.431,14.465,14.365,14.465h141.643v-4.01H600.163z"/>
		</g>
		<g>
			<path style="fill:#D4CFCD;" d="M731.063,787.101H609.478c-8.699,0-15.754,7.103-15.754,15.861
				c0,8.757,7.054,15.859,15.754,15.859h121.585V787.101z"/>
			<path style="fill:#EE7423;" d="M731.482,818.782H605.29h-0.005h-0.009c-8.636-0.088-15.656-7.184-15.656-15.82
				c0-8.636,7.021-15.734,15.656-15.822h0.009h0.005h126.192c1.286,0,2.331-1.048,2.331-2.334c0-1.289-1.045-2.334-2.331-2.334
				H603.588c-5.047,0.454-9.737,2.782-13.208,6.573c-3.501,3.815-5.427,8.76-5.427,13.917s1.927,10.1,5.427,13.917
				c3.471,3.786,8.161,6.12,13.208,6.575h127.894c1.286,0,2.331-1.048,2.331-2.336C733.813,819.832,732.768,818.782,731.482,818.782
				z"/>
			<g>
				<g>
					<g>
						<path style="fill:#9B9494;" d="M636.165,792.984c0,0,3.929-0.066,9.822-0.168c5.896-0.039,13.752-0.09,21.61-0.141
							c7.859,0.051,15.715,0.102,21.61,0.141c5.893,0.1,9.822,0.168,9.822,0.168s-3.929,0.068-9.822,0.168
							c-5.895,0.039-13.751,0.09-21.61,0.141c-7.859-0.051-15.715-0.102-21.61-0.141
							C640.094,793.05,636.165,792.984,636.165,792.984z"/>
					</g>
				</g>
				<g>
					<g>
						<path style="fill:#9B9494;" d="M609.697,802.962c0,0,4.582-0.054,11.452-0.137c6.875-0.031,16.037-0.075,25.198-0.117
							c9.164,0.041,18.327,0.085,25.198,0.117c6.874,0.08,11.454,0.137,11.454,0.137s-4.58,0.056-11.454,0.136
							c-6.872,0.032-16.034,0.076-25.198,0.117c-9.162-0.041-18.323-0.085-25.198-0.117
							C614.28,803.016,609.697,802.962,609.697,802.962z"/>
					</g>
				</g>
				<g>
					<g>
						<path style="fill:#9B9494;" d="M653.319,810.122c0,0,19.435-0.127,38.872-0.253c19.437,0.126,38.872,0.253,38.872,0.253
							s-19.435,0.127-38.872,0.253C672.754,810.248,653.319,810.122,653.319,810.122z"/>
					</g>
				</g>
				<g>
					<g>
						<path style="fill:#9B9494;" d="M647.551,805.876c0,0,20.877-0.127,41.756-0.254c20.879,0.127,41.756,0.254,41.756,0.254
							s-20.877,0.127-41.756,0.253C668.428,806.003,647.551,805.876,647.551,805.876z"/>
					</g>
				</g>
				<g>
					<g>
						<path style="fill:#9B9494;" d="M647.551,797.82c0,0,5.218-0.083,13.048-0.207c7.829-0.049,18.27-0.112,28.709-0.175
							c10.438,0.063,20.879,0.126,28.708,0.175c7.83,0.124,13.048,0.207,13.048,0.207s-5.218,0.083-13.048,0.207
							c-7.829,0.049-18.27,0.112-28.708,0.176c-10.438-0.063-20.879-0.127-28.709-0.176
							C652.769,797.902,647.551,797.82,647.551,797.82z"/>
					</g>
				</g>
				<g>
					<g>
						<path style="fill:#9B9494;" d="M679.546,789.474c0,0,3.22-0.054,8.049-0.137c4.831-0.031,11.269-0.075,17.71-0.117
							c6.441,0.041,12.879,0.085,17.71,0.117c4.828,0.083,8.049,0.137,8.049,0.137s-3.22,0.053-8.049,0.136
							c-4.831,0.032-11.269,0.075-17.71,0.117c-6.441-0.041-12.879-0.085-17.71-0.117
							C682.766,789.527,679.546,789.474,679.546,789.474z"/>
					</g>
				</g>
				<g>
					<g>
						<path style="fill:#9B9494;" d="M634.194,812.604c0,0,4.183-0.053,10.46-0.136c6.278-0.032,14.645-0.076,23.013-0.117
							c8.37,0.041,16.738,0.085,23.015,0.117c6.275,0.08,10.46,0.136,10.46,0.136s-4.185,0.056-10.46,0.136
							c-6.278,0.032-14.645,0.076-23.015,0.117c-8.368-0.041-16.736-0.085-23.013-0.117
							C638.377,812.657,634.194,812.604,634.194,812.604z"/>
					</g>
				</g>
				<g>
					<g>
						<path style="fill:#9B9494;" d="M631.057,800.11c0,0,2.209-0.083,5.52-0.207c3.311-0.049,7.727-0.112,12.144-0.176
							c4.414,0.063,8.831,0.127,12.141,0.176c3.313,0.124,5.52,0.207,5.52,0.207s-2.207,0.083-5.52,0.207
							c-3.311,0.049-7.727,0.112-12.141,0.176c-4.417-0.063-8.833-0.127-12.144-0.176
							C633.266,800.192,631.057,800.11,631.057,800.11z"/>
					</g>
				</g>
			</g>
			<path style="fill:#BCB8B1;" d="M608.801,814.424c-11.554,0-15.076-8.175-15.076-11.461c0-8.758,7.054-15.861,15.754-15.861h-4.11
				c-8.701,0-15.749,7.103-15.749,15.861c0,8.757,7.047,15.859,15.749,15.859h125.695v-4.397H608.801z"/>
		</g>
		<g>
			<path style="fill:#65BD56;" d="M724.193,861.987c0,0,4.073-8.263,4.073-18.984c0-10.721-4.073-18.987-4.073-18.987H592.745
				c0,0-2.243,4.563-2.243,18.987c0,14.421,2.243,18.984,2.243,18.984H724.193z"/>
			<path style="fill:#86C555;" d="M619.542,852.27c5.118,0,9.266-4.149,9.266-9.267c0-5.121-4.149-9.27-9.266-9.27
				c-5.121,0-9.267,4.149-9.267,9.27C610.274,848.121,614.421,852.27,619.542,852.27z"/>
			<path style="fill:#86C555;" d="M596.657,843.003c0-14.424,2.241-18.987,2.241-18.987h8.974c0,0-2.246,4.563-2.246,18.987
				c0,14.421,2.246,18.984,2.246,18.984h-8.974C598.898,861.987,596.657,857.425,596.657,843.003z"/>
			<path style="fill:#86C555;" d="M714.279,843.003c0-14.424-2.241-18.987-2.241-18.987h-8.974c0,0,2.241,4.563,2.241,18.987
				c0,14.421-2.241,18.984-2.241,18.984h8.974C712.037,861.987,714.279,857.425,714.279,843.003z"/>
			<path style="fill:#86C555;" d="M722.488,843.003c0-14.424-2.246-18.987-2.246-18.987h-4.487c0,0,2.246,4.563,2.246,18.987
				c0,14.421-2.246,18.984-2.246,18.984h4.487C720.242,861.987,722.488,857.425,722.488,843.003z"/>
		</g>
		<g>
			<path style="fill:#213364;" d="M754.841,899.958c0,0,4.068-8.263,4.068-18.987c0-10.718-4.068-18.984-4.068-18.984H562.1
				c0,0-2.246,4.563-2.246,18.984c0,14.429,2.246,18.987,2.246,18.987H754.841z"/>
			<path style="fill:#354E85;" d="M566.007,880.971c0-14.421,2.246-18.984,2.246-18.984h8.974c0,0-2.241,4.563-2.241,18.984
				c0,14.429,2.241,18.987,2.241,18.987h-8.974C568.253,899.958,566.007,895.4,566.007,880.971z"/>
			<path style="fill:#354E85;" d="M744.929,880.971c0-14.421-2.246-18.984-2.246-18.984h-8.974c0,0,2.246,4.563,2.246,18.984
				c0,14.429-2.246,18.987-2.246,18.987h8.974C742.683,899.958,744.929,895.4,744.929,880.971z"/>
			<path style="fill:#354E85;" d="M753.131,880.971c0-14.421-2.246-18.984-2.246-18.984H746.4c0,0,2.246,4.563,2.246,18.984
				c0,14.429-2.246,18.987-2.246,18.987h4.485C750.885,899.958,753.131,895.4,753.131,880.971z"/>
		</g>
		<g>
			<path style="fill:#0EABE2;" d="M746.157,937.897c0,0,4.066-8.266,4.066-18.987c0-10.721-4.066-18.989-4.066-18.989H570.784
				c0,0-2.241,4.563-2.241,18.989c0,14.424,2.241,18.987,2.241,18.987H746.157z"/>
			<path style="fill:#46BEE8;" d="M574.699,918.91c0-14.426,2.241-18.989,2.241-18.989h8.974c0,0-2.241,4.563-2.241,18.989
				c0,14.424,2.241,18.987,2.241,18.987h-8.974C576.94,937.897,574.699,933.334,574.699,918.91z"/>
		</g>
	</g>
	<g>
		<g>
			<path style="fill:#71AD5E;" d="M653.407,667.662c-0.405-0.241-0.897-0.231-1.321,0.027
				c-25.69,15.773-49.422,38.993-68.618,67.149c-9.133,13.398-16.499,26.86-22.041,40.26c-4.141,10.012-9.076,38.389-9.693,63.054
				h2.662c0.748-21.905,5.486-52.307,9.442-61.931c7.313-17.798,17.856-35.578,31.522-53.127
				c17.242-22.144,36.781-40.002,58.08-53.076c0.419-0.256,0.653-0.672,0.648-1.145
				C654.084,668.384,653.816,667.906,653.407,667.662z"/>
			<path style="fill:#71AD5E;" d="M649.982,670.6c8.926-32.677,41.773-38.136,67.888-52.947
				C703.657,639.371,677.904,666.737,649.982,670.6L649.982,670.6z"/>
			<path style="fill:#71AD5E;" d="M610.84,702.956c-0.738-18.088-1.354-33.159,3.476-51.627
				c4.699-18.007,12.285-35.68,23.133-50.915l0,0l0,0c-0.607,7.266,3.237,16.321,3.542,23.858
				c0.699,9.634-1.491,18.933-4.139,28.097c-4.098,14.212-9.762,26.974-18.64,38.811L610.84,702.956z"/>
			<path style="fill:#689F41;" d="M635.429,681.129c22.036,18.275,61.705,6.387,85.179,0.748
				c-19.118-6.012-45.788-4.772-65.515-3.51L635.429,681.129z"/>
			<path style="fill:#71AD5E;" d="M603.354,711.718c20.314,24.231,59.281,32.002,88.801,19.167c0,0-17.671-7.583-25.065-11.203
				c-10.606-4.548-22.2-7.398-33.532-7.69L603.354,711.718z"/>
			<path style="fill:#42833C;" d="M596.767,719.165c-12.602-16.548-17.23-47.089-10.497-66.989
				c4.641,6.302,6.12,16.658,8.394,24.265c3.961,12.066,5.316,22.882,3.576,35.788L596.767,719.165z"/>
			<path style="fill:#689F41;" d="M588.287,730.371c14.504,14.913,32.375,15.417,52.389,10.341c0,0-13.963-7.283-20.487-9.3
				c-6.051-2.078-13.393-3.023-20.014-2.141L588.287,730.371z"/>
			<path style="fill:#689F41;" d="M576.913,747.075c-0.611,11.528,5.922,18.994,15.535,25.237c0,0-2.295-8.433-3.937-11.854
				c-1.432-3.247-3.815-6.597-6.67-8.962L576.913,747.075z"/>
			<path style="fill:#42833C;" d="M575.695,749.652c-10.633,4.485-19.881,0.875-29.01-6.049c0,0,8.706-0.701,12.482-0.321
				c3.542,0.246,7.503,1.352,10.699,3.232L575.695,749.652z"/>
			<path style="fill:#689F41;" d="M617.081,696.878c13.588,14.848,62.163,13.403,80.058,8.134c0,0-23.006-6.302-45.496-9.233
				C629.154,692.849,617.081,696.878,617.081,696.878z"/>
			<path style="fill:#689F41;" d="M639.911,677.502c-2.816-16.874,10.053-49.273,21.018-67.904
				c2.465,14.68-3.596,49.391-19.674,66.93L639.911,677.502z"/>
			<path style="fill:#71AD5E;" d="M580.463,741.92c-6.884-5.418-11.654-16.404-13.766-26.513
				c-3.135-14.317-3.905-29.069-2.468-43.739c11.683,15.659,19.59,49.963,16.816,69.283L580.463,741.92z"/>
			<path style="fill:#42833C;" d="M579.41,743.421c17.637,17.384,41.111,24.716,65.861,7.269c-9.742-1.135-24.809-4.701-38.065-5.53
				C593.958,744.332,579.41,743.421,579.41,743.421z"/>
			<path style="fill:#689F41;" d="M577.296,746.419c-14.09-1.213-24.555-17.05-28.648-29.116
				c9.296,4.212,21.106,13.715,25.147,22.865L577.296,746.419z"/>
		</g>
		<g>
			<path style="fill:#71AD5E;" d="M500.151,760.675c-0.925,16.039-0.217,62.82-3.873,77.478h4.056
				c3.574-14.592,2.799-61.38,3.695-77.478c1.106-19.841,0.171-40.76-2.811-62.618c-6.704-49.286-22.558-95.083-45.827-132.442
				c-0.38-0.612-1.018-0.945-1.708-0.896c-0.691,0.053-1.352,0.499-1.678,1.137c-0.312,0.619-0.278,1.318,0.1,1.922
				c19.286,30.962,33.167,67.025,41.245,107.19C499.438,705.205,501.703,733.864,500.151,760.675z"/>
			<path style="fill:#71AD5E;" d="M456.252,570.792c9.639-48.504-29.688-77.047-54.144-113.417
				C406.505,495.006,422.301,547.539,456.252,570.792L456.252,570.792z"/>
			<path style="fill:#71AD5E;" d="M486.264,638.569c12.762-23.14,23.393-42.421,29.128-69.688
				c5.605-26.584,7.221-54.608,2.986-81.587l0,0l0,0c-3.946,9.895-14.865,19.213-20.18,28.852
				c-7.196,12.129-10.4,25.7-12.919,39.396c-3.914,21.233-4.84,41.595-0.962,62.842L486.264,638.569z"/>
			<path style="fill:#689F41;" d="M468.391,594.036c-40.696,9.496-84.759-31.902-111.736-54.567
				c28.886,4.609,62.913,23.627,87.853,38.131L468.391,594.036z"/>
			<path style="fill:#71AD5E;" d="M490.332,654.9c-42.331,18.395-98.289,3.133-128.473-32.877c0,0,28.022,1.622,40.046,1.713
				c16.809,0.974,33.802,4.813,48.801,11.822L490.332,654.9z"/>
			<path style="fill:#42833C;" d="M494.078,668.917c27.247-13.391,53.206-50.26,57.388-80.647
				c-10.17,5.211-18.847,17.766-26.781,26.221c-13.045,13.172-21.859,26.419-28.007,44.407L494.078,668.917z"/>
			<path style="fill:#689F41;" d="M497.842,689.083c-28.665,10.014-52.333-0.977-75.166-20.66c0,0,22.986-0.402,32.823,1.215
				c9.262,1.23,19.467,4.784,27.539,10.253L497.842,689.083z"/>
			<path style="fill:#689F41;" d="M501.81,718.313c-6.726,15.452-20.127,20.95-36.752,22.833c0,0,8.502-9.516,12.877-12.916
				c3.985-3.308,9.281-6.126,14.548-7.352L501.81,718.313z"/>
			<path style="fill:#42833C;" d="M501.715,722.468c10.967,12.794,25.388,14.114,41.836,11.023c0,0-10.923-6.597-16.097-8.56
				c-4.785-1.991-10.678-3.128-16.073-2.75L501.715,722.468z"/>
			<path style="fill:#689F41;" d="M482.083,626.567c-27.432,10.529-89.921-23.037-109.868-41.578c0,0,34.158,6.76,65.442,17.6
				C468.936,613.427,482.083,626.567,482.083,626.567z"/>
			<path style="fill:#689F41;" d="M464.902,586.37c14.677-20.199,18.996-70.911,16.828-102.389
				c-12.799,17.561-27.515,66.852-17.948,100.238L464.902,586.37z"/>
			<path style="fill:#71AD5E;" d="M500.532,709.27c12.521-2.592,25.919-13.83,35.269-25.656
				c13.427-16.653,24.058-35.415,31.746-55.517c-25.481,12.84-58.173,52.482-67.137,79.524L500.532,709.27z"/>
			<path style="fill:#42833C;" d="M500.931,711.913c-34.368,11.203-69.812,5.469-90.757-33.454
				c13.462,4.872,35.471,10.041,53.32,17.598C481.338,703.619,500.931,711.913,500.931,711.913z"/>
			<path style="fill:#689F41;" d="M501.73,717.204c19.199,7.603,43.191-6.246,56.402-19.339
				c-14.882-0.56-36.504,4.148-47.751,13.466L501.73,717.204z"/>
		</g>
		<polygon style="fill:#F68D3F;" points="573.9,929.015 480.042,928.61 463.947,808.745 590.333,808.745 		"/>
		<path style="fill:#FBB05D;" d="M594.599,808.745v-21.44c0-4.351-3.533-7.883-7.883-7.883H467.56c-4.353,0-7.876,3.532-7.876,7.883
			v21.44H594.599z"/>
	</g>
</g>
<g>
	<rect x="716.356" y="748.917" style="fill:#804F3F;" width="103.634" height="75.302"/>
	<g>
		<path style="fill:#EFA88B;" d="M720.534,857.922c16.687-5.961,13.912-42.743,13.912-42.743l38.762,6.317
			c0,0-2.769,30.465,13.917,36.426c1.612,0.558,20.711,27.157-13.917,27.157C738.59,885.079,719.311,858.348,720.534,857.922z"/>
		<path style="fill:#DB9A80;" d="M744.166,849.766c-12.19,11.642-21.196,7.026-21.196,7.026l-0.01-0.012
			c13.968-7.917,11.474-41.6,11.474-41.6l38.774,6.317c0,0-0.558,6.731,0.295,13.06
			C773.503,834.555,756.359,838.117,744.166,849.766z"/>
	</g>
	<path style="fill:#EFA88B;" d="M715.124,733.699c8.475-29.381,45.536-29.381,45.536-29.381s39.303-0.555,45.554,29.381
		c13.135,62.971-12.258,94.35-31.737,94.35c-21.888,0-40.056-11.383-50.221-20.11c-8.969-7.707-3.045,0.955-6.217-6.463
		C714.868,794.066,706.659,763.087,715.124,733.699z"/>
	<g>
		<path style="fill:#AE6E59;" d="M807.676,832.282c2.168-14.421,3.284-59.692,1.457-63.283c-4.368-8.556-6.358-29.837-9.447-39.958
			c0,0-10.015,24.236-31.493,25.247c-15.954,0.753-24.519,2.594-28.434,19.264c-1.113,4.733-11.366-4.478-11.673-1.769
			c-1.578,13.746,10.265,37.032,6.992,60.498h-48.404c-5.279-65.553-2.124-123.436,27.99-143.304
			c59.79-39.481,92.642,3.121,92.642,3.121c6.275,0,15.98,9.976,18.918,22.324c10.348,43.634,3.527,104.625-2.729,117.86H807.676z"
			/>
		<path style="fill:#C2C4C6;" d="M802.706,723.893c0.994,2.702,4.673,12.246,5.277,26.709c0.597,14.214,1.203,18.389,1.203,18.389
			c-4.4-8.487-6.397-29.802-9.5-39.951c0,0-8.438,19.876-26.382,24.579c8.492-4.512,16.024-15.249,22.816-28.409
			c6.641-12.857,8.57-30.199,11.186-33.113C807.306,692.098,801.712,721.192,802.706,723.893z"/>
	</g>
	<g>
		<g>
			<path style="fill:#EEECEC;" d="M795.14,801.988c-2.572,7.815-9.388,13.456-17.495,13.456c-8.102,0-14.918-5.642-17.488-13.456
				H795.14z"/>
			<g>
				<g>
					
						<path style="fill:none;stroke:#402320;stroke-width:3.1622;stroke-linecap:round;stroke-linejoin:round;stroke-miterlimit:10;" d="
						M796.305,763.279c-0.273,0.114,5.686-2.475,9.337,3.086"/>
					<g>
						<g>
							<path style="fill:#1E0D0A;" d="M798.55,770.003c2.1,0,3.82,1.713,3.82,3.83c0,2.112-1.72,3.82-3.82,3.82
								c-2.109,0-3.824-1.707-3.824-3.82C794.726,771.715,796.441,770.003,798.55,770.003z"/>
							<path style="fill:#1E0D0A;" d="M756.339,770.003c2.105,0,3.817,1.713,3.817,3.83c0,2.112-1.712,3.82-3.817,3.82
								c-2.105,0-3.825-1.707-3.825-3.82C752.515,771.715,754.234,770.003,756.339,770.003z"/>
						</g>
						
							<path style="fill:none;stroke:#402320;stroke-width:3.1622;stroke-linecap:round;stroke-linejoin:round;stroke-miterlimit:10;" d="
							M758.573,763.279c0,0-5.732-2.402-9.322,3.086"/>
					</g>
				</g>
				
					<path style="fill:none;stroke:#D5D7D8;stroke-width:2.2601;stroke-linecap:round;stroke-linejoin:round;stroke-miterlimit:10;" d="
					M784.348,792.171c0,0-0.779,1.559-4.692,1.559c-3.902,0-4.458-1.559-4.458-1.559"/>
			</g>
		</g>
		<path style="fill:#EFA88B;" d="M731.243,782.521c-1.335,0.344-2.777,0.324-4.195-0.119c-4.105-1.257-6.414-5.627-5.138-9.74
			c1.274-4.099,5.649-6.414,9.749-5.135c1.757,0.534,7.805,3.106,5.293,9.778"/>
	</g>
	<path style="fill:#EFA88B;" d="M813.266,1011.236c-0.351-7.391-4.954-59.417-12.158-81.914l31.936-5.871l8.182,78.759
		c0,0,13.147,17.357,0,19.369C828.07,1023.603,813.266,1011.236,813.266,1011.236z"/>
	<g>
		<path style="fill:#979CAC;" d="M841.227,938.245l-44.854,10.48c0,0-3.157-23.437-4.068-27.067
			c-9.299-36.962-3.211-58.217,7.62-59.673c25.676-3.391,34.628,54.899,34.628,54.899S836.806,931.573,841.227,938.245z"/>
	</g>
	<g>
		<path style="fill:#004155;" d="M766.571,1038.314c0,0,13.51,84.993,40.745,118.983c0,0-13.213,12.146-58.918,2.066
			c0,0,11.59-70.055,2.628-121.049H766.571z"/>
		<g>
			<path style="fill:#004155;" d="M909.015,1115.754c3.83-6.244,2.553-22.711-4.333-31.269
				c-14.862,5.196-84.287-12.84-93.156-46.879c-7.055,0.129-8.438,0.249-15.493,0.378
				C803.25,1079.981,884.562,1097.644,909.015,1115.754z"/>
		</g>
		<g>
			<path style="fill:#004155;" d="M836.872,1149.744c10.935,4.075,45.59-5.389,56.455-15.381
				c-27.04-20.158-98.754-60.45-108.447-96.204c-1.744-6.402-13.808,0.253-20.706,0.378
				C771.42,1108.784,790.502,1115.383,836.872,1149.744z"/>
		</g>
		<path style="fill:#105972;" d="M804.651,1160.681c1.883,0,51.476-2.248,58.399-8.044c-33.902-24.265-88.622-65.215-84.813-113.894
			c-6.014,0.098-8.046-0.085-14.063,0.012C770.071,1109.264,795.174,1154.031,804.651,1160.681z"/>
		<g>
			<path style="fill:#105972;" d="M893.327,1134.362c19.249-8.07,21.593-21.978,19.678-32.531
				c-51.166-4.231-109.494-33.617-111.09-63.97c-0.434-8.17-8.538,1.152-17.215,1.306
				C790.229,1080.655,835.802,1128.172,893.327,1134.362z"/>
		</g>
		<g>
			<path style="fill:#105972;" d="M911.142,1090.511c0.127-8.721,1.03-7.14-5.747-17.985c-67.2,2.407-88.764-18.989-92.237-29.88
				c-1.004-3.123-2.514-4.263-5.842-3.856C809.98,1065.211,861.576,1093.227,911.142,1090.511z"/>
		</g>
		<g>
			<path style="fill:#004155;" d="M659.677,1146.815c-5.252-5.106-8.076-21.373-3.523-31.361
				c15.698,1.364,40.502-43.809,49.364-77.848c7.054,0.129,8.441,0.249,15.5,0.378
				C713.801,1079.981,728.018,1122.888,659.677,1146.815z"/>
		</g>
		<g>
			<path style="fill:#004155;" d="M715.959,1159.363c-10.937,4.078-23.03-1.33-40.74-5.333
				c21.242-26.185,47.257-80.119,56.95-115.872c1.749-6.402,13.817,0.253,20.711,0.378
				C745.63,1108.784,762.322,1125.01,715.959,1159.363z"/>
		</g>
		<g>
			<path style="fill:#105972;" d="M675.219,1154.031c-20.635-3.055-22.095-9.006-22.845-19.7
				c48.55-16.738,61.164-66.116,62.762-96.469c0.438-8.17,9.666,1.359,18.341,1.508
				C727.945,1080.862,707.915,1134.362,675.219,1154.031z"/>
		</g>
		<g>
			<path style="fill:#105972;" d="M651.388,1122.888c-2.268-8.409-2.755-6.657,1.138-18.842c36.297-11.841,47.9-50.509,51.371-61.4
				c0.994-3.123,2.511-4.263,5.832-3.856C707.073,1065.211,679.687,1110.216,651.388,1122.888z"/>
		</g>
		<path style="fill:#105972;" d="M750.132,1164.674c-1.883,0-32.516,8.022-49.244-3.993c33.903-24.267,46.07-72.783,42.265-121.465
			c6.015,0.092,6.424-0.558,12.441-0.46C762.195,1091.369,758.848,1145.302,750.132,1164.674z"/>
	</g>
	<path style="fill:#CF927A;" d="M878.555,1095.159c-27.839,19.389-98.496,51.656-117.909,58.872
		c-22.319,8.319,17.213,14.921,17.213,14.921s152.627-20.319,151.345-67.237C928.372,1070.943,900.976,1079.545,878.555,1095.159z"
		/>
	<path style="fill:#A8ADBF;" d="M704.25,1023.299c0,0-11.912-157.484,1.639-161.718c4.253-1.332,10.153-2.042,14.719-3.659
		c0,0,23.756,19.074,48.796,19.074c25.04,0,17.798-19.074,17.798-19.074s10.945,1.133,14.877,6.329
		c15.001,19.817,7.63,77.693,9.51,159.048c0,0-3.937,21.486-45.856,21.486C723.811,1044.785,704.25,1023.299,704.25,1023.299z"/>
	<path style="fill:#1C6E8B;" d="M702.785,1044.716c0,0,18.27,17.737,70.469,14.421c35.425-2.258,41.651-14.353,41.651-14.353
		l-2.772-21.486c0,0-5.274,9.152-41.807,12.09c-44.146,3.527-66.077-12.09-66.077-12.09L702.785,1044.716z"/>
	<g>
		<path style="fill:#EFA88B;" d="M841.227,1002.21c7.671,5.571,33.703,44.565,55.578,57.843c1.4,0.726,12.321,4.709,15.323,5.432
			c11.537,2.879,20.833,6.884,23.227,20.597c1.464,8.334-2.341,9.8-12.387,1.057c-4.065-3.542-12.545-5.705-18.443-7.252
			c0,0-6.531-0.867-10.538-5.8c-25.663-9.537-78.983-52.933-80.72-62.852C811.476,1001.07,824.182,989.845,841.227,1002.21z"/>
		<path style="fill:#EFA88B;" d="M910.009,1075.566c0,0,2.003,4.68,6.071,9.284c3.365,3.822,0.697,6.677-2.816,4.736
			c-3.518-1.924-5.891-6.726-10.019-10.053"/>
	</g>
	<path style="fill:#002435;" d="M819.145,1159.173c1.951-7.342,13.466-9.457,22.187-7.155c18.921,4.977,35.006,0.068,41.578,11.639
		c6.563,11.578-16.034,25.33-55.089,12.592C818.292,1173.134,817.196,1166.542,819.145,1159.173z"/>
	<path style="fill:#002435;" d="M796.205,1159.173c-1.956-7.342-13.454-9.457-22.183-7.155
		c-18.918,4.977-35.003,0.068-41.576,11.639c-6.57,11.578,16.039,25.33,55.083,12.592
		C797.067,1173.134,798.161,1166.542,796.205,1159.173z"/>
	<path style="fill:#DD9B81;" d="M829.79,1172.791c0,0-199.696,0.792-192.765-45.639c7.393-49.507,84.221-6.083,106.803,0.499
		c23.03,6.731,90.993,26.302,90.993,26.302s2.078,4.129,0.419,10.58C833.593,1170.978,829.79,1172.791,829.79,1172.791z"/>
	<g>
		<path style="fill:#EFA88B;" d="M670.177,1018.507c0.102-7.708,10.017-52.297,11.062-82.131h33.678l-12.39,75.424
			c0,0-0.765,9.213-10.748,9.213C678.099,1021.007,670.177,1018.507,670.177,1018.507z"/>
		<g>
			<path style="fill:#EFA88B;" d="M670.177,1018.507c-2.422,21.622-11.464,50.918-16.852,71.227
				c-0.855,1.33-8.271,10.278-10.495,12.417c-8.509,8.322-14.512,16.455-9.656,29.52c2.938,7.922,6.967,7.274,11.23-5.352
				c1.725-5.115,7.946-11.247,12.258-15.566c0,0,5.204-4.037,6.168-10.334c17.337-21.191,37.69-77.314,39.435-87.229
				C704.052,1003.006,673.146,991.925,670.177,1018.507z"/>
			<path style="fill:#EFA88B;" d="M649.743,1109.79c0,0,0.629,5.057-0.548,11.086c-0.972,4.982,2.75,6.095,4.806,2.665
				c2.066-3.447,1.705-8.782,3.579-13.751"/>
		</g>
	</g>
	<g>
		<path style="fill:#B6BCCF;" d="M718.293,944.62l-43.578-5.593c4.032-8.619,4.383-18.77,4.841-23.313
			c3.756-37.924,10.417-56.699,31.576-53.527c21.174,3.169,9.325,64.747,9.325,64.747L718.293,944.62z"/>
	</g>
	<g>
		<path style="fill:#C0A699;" d="M790.663,1141.222c6.187-2.811,12.804-5.865,19.644-9.132c1.671,4.499,3.615,8.908,6.552,13.174
			c1.094,1.598,2.276,3.069,3.484,4.509C812.256,1147.454,801.642,1144.394,790.663,1141.222z"/>
		<path style="fill:#E1C2B2;" d="M790.48,1141.171c22.891,6.604,44.341,12.782,44.341,12.782s2.078,4.129,0.419,10.58
			c-1.646,6.446-5.447,8.258-5.447,8.258s-21.025,0.078-49.157-1.396C785.73,1161.263,790.551,1150.937,790.48,1141.171z"/>
	</g>
</g>
<g>
	<g>
		<g>
			<path style="fill:#C4B8B1;" d="M1530.536,1154.839c-90.654,0-113.073,57.045-113.073,57.045s1.203,41.111,101.5,43.252
				c100.375,2.148,124.62-43.252,124.62-43.252S1621.179,1154.839,1530.536,1154.839z"/>
			<path style="fill:#D7CAC2;" d="M1551.927,1179.473c0,0-4.582,8.597-23.595,8.195c-18.994-0.411-19.22-8.195-19.22-8.195V925.034
				h42.816V1179.473z"/>
		</g>
		<g>
			<path style="fill:#6C6FB4;" d="M1692.372,800.019c-40.886-22.185-102.818-9.576-102.818,99.914
				c0,69.008-138.79,63.731-182.02,50.102c-32.711-10.29-63.827-35.807-62.726-72.353c3.286-109.446-61.951-122.111-102.823-99.913
				c-46.754,25.371-48.652,75.989,0,163.287c75.649,135.741,369.473,162.079,446.315,44.358
				C1742.937,901.726,1739.127,825.405,1692.372,800.019z"/>
			<path style="fill:#6164A2;" d="M1344.809,877.682c-1.101,36.545,30.014,62.063,62.726,72.353
				c42.898,13.513,180.724,18.779,181.962-48.57c-8.684,1.264-17.517,2.02-26.533,2.02c-114.406,0-127.985-52.377-132.457-103.326
				c-4.472-50.943-15.732-74.497-51.773-74.497L1260.9,770.558C1300.239,761.26,1347.623,784.01,1344.809,877.682z"/>
			<path style="fill:#6C6FB4;" d="M1425.198,799.264c1.742,47.378,23.359,104.221,137.765,104.221c9.016,0,17.849-0.755,26.533-2.02
				c0.005-0.524,0.058-1.004,0.058-1.532c0-66.065,22.558-96.825,49.425-105.985h-0.005v-0.034l171.957-9.435
				c0,0,27.43-189.095-80.126-272.409c-162.245-125.687-378.055-19.303-350.676,207.324c0.273,2.233-0.59,4.36-0.945,6.482
				C1400.988,733.896,1423.461,751.896,1425.198,799.264z"/>
			<path style="fill:#C7C8CA;" d="M1810.931,784.48c0,0,27.43-189.095-80.126-272.409c-23.727-18.382-48.613-31.668-73.709-40.462
				c36.2,30.16,58.431,74.518,59.069,124.885c0.465,36.753-6.263,79.244-24.149,111.919c-7.647,13.956-18.136,27.461-33.875,32.538
				c-21.537,6.931-40.908,12.073-57.303,28.855c-14.022,14.358-40.267,49.505-65.122,39.347
				c-18.199-7.432-24.265-29.722-31.228-46.277c-5.22-12.44-11.181-27.736-24.175-33.902c-19.435-9.245-40.752-8.47-60.945-14.767
				c-19.108-5.951-31.488-16.49-41.444-29.684c0.127,11.306,0.753,22.88,2.205,34.872c0.273,2.233-0.59,4.36-0.945,6.482
				c21.805,8.019,44.277,26.019,46.014,73.388c1.742,47.378,23.359,104.221,137.765,104.221c9.016,0,17.849-0.755,26.533-2.02
				c0.005-0.524,0.058-1.004,0.058-1.532c0-66.065,22.558-96.825,49.425-105.985h-0.005v-0.034L1810.931,784.48z"/>
			<path style="fill:#C7C8CA;" d="M1730.805,512.071c-1.651-1.286-3.318-2.487-4.979-3.71c0.672,1.51,1.357,3.018,2.017,4.538
				c8.088,18.528,12.07,37.792,13.373,58.021c3.537,54.735-4.331,118.391-31.02,167.046c-9.949,18.144-21.092,35.72-31.269,53.768
				l132.004-7.255C1810.931,784.48,1838.361,595.385,1730.805,512.071z"/>
		</g>
	</g>
	<g>
		<g>
			<path style="fill:#CB664A;" d="M1491.3,585.522c-19.323-5.342-31.854,10.745-38.626,42.131
				c-4.307,20.017-26.251,124.323-27.476,128.667c-0.28,1.04,29.03,36.511,33.303,34.548c9.888-4.549,36.321-142.445,36.321-142.445
				S1520.142,593.458,1491.3,585.522z"/>
		</g>
		<path style="fill:#A9543B;" d="M1293.469,939.774c0,0,34.509,5.35,77.794,27.478c43.296,22.146,93.995,45.771,133.568,22.385
			c39.573-23.381,44.484-88.811,44.484-88.811l-178.052-30.199C1371.264,870.628,1296.198,889.127,1293.469,939.774z"/>
		<g>
			<path style="fill:#EFA88B;" d="M1630.441,876.635c16.77-35.082,21.413-52.316,21.413-52.316l-106.45-7.859l-1.213,28.909
				c0,0-136.242,87.056-143.882,107.677c-7.644,20.65,50.93,261.211,50.93,261.211c-0.105,10.516-9.849,15.179-32.37,25.22
				c0,0-6.083,11.839-0.587,14.477c9.301,4.48,34.504-1.137,52.816-16.979c5.161-4.463,9.703-15.729,4.368-20.285
				c-1.715-1.459-15.888-229.279-11.942-250.843C1467.475,944.279,1594.231,952.393,1630.441,876.635z"/>
			<g>
				<g>
					<path style="fill:#EFA88B;" d="M1616.906,600.95v-20.273c-16.76-2.119-32.499-3.245-33.437-4.962
						c-6.187-11.308-4.663-47.323-4.663-47.323l-39.585,2.977c0,0,2.436,22.521-3.421,40.414
						c-3.703,11.33-34.397,10.935-34.397,10.935s-2.183,6.831-4.619,18.231H1616.906z"/>
					<path style="fill:#461500;" d="M1475.465,1216.69c-0.454,12.419-11.644,16.95-19.635,22.273
						c-11.106,7.383-30.969,11.929-34.621,8.563c-3.625-3.377-1.659-7.515-2.341-8.049c0,0-11.025,5.627-14.789,10.762
						c-13.345,18.202,29.415,25.395,74.106-9.33C1484.094,1236.327,1480.232,1221.506,1475.465,1216.69z"/>
				</g>
				<path style="fill:#F0B79C;" d="M1570.8,564.67c4.275,3.442,8.161,6.032,11.617,8.068c-4.638-13.096-3.547-42.606-3.484-44.346
					l-16.424,1.062l-23.157,1.739c0,0,1.199,11.133-0.112,23.951C1546.973,555.783,1560.453,556.365,1570.8,564.67z"/>
			</g>
		</g>
		<g>
			<path style="fill:#D7977E;" d="M1516.681,891.738l-22.653-67.42h-12.823c0,0-161.694,102.438-167.171,122.398
				c-5.478,19.958,18.914,264.154,18.999,267.535c-0.341,7.832-11.552,9.44-37.22,13.834c0,0-9.045,9.746-4.463,13.778
				c7.766,6.823,33.532,8.204,55.437-2.122c6.18-2.897,12.041-11.747,9.674-18.344c-3.966-17.615,15.366-249.846,21.742-263.603
				C1384.582,944.042,1516.681,891.738,1516.681,891.738z"/>
			<path style="fill:#461500;" d="M1356.402,1221.401c0,0,1.596,10.514-17.953,14.419c-13.096,2.619-39.425,3.069-42.036-1.159
				c-2.592-4.22-0.641-6.546-0.641-6.546s-16.314,2.889-19.228,6.056c-15.293,16.578,45.527,23.513,77.378,10.612
				C1363.374,1240.948,1361.21,1226.288,1356.402,1221.401z"/>
		</g>
		<path style="fill:#FDD8C6;" d="M1473.487,793.354c0.757,14.955,7.893,30.964,7.893,30.964s26.889,9.793,91.536,9.793
			c64.647,0,79.03-9.793,79.03-9.793s7.05-1.773,7.028-20.19c-0.024-18.416,2.219-146.235,2.107-151.855
			c0,0,0.01-67.824-30.192-69.902c-15.021-1.03-35.367-4.584-35.367-4.584s-17.359,15.116-48.355,16.241
			c-31.006,1.138-28.784-13.601-28.784-13.601c-2.884,0.356-21.276,2.463-22.799,2.799c0.012,0.219-18.694,6.285-21.376,32.497
			C1471.539,641.928,1472.718,778.429,1473.487,793.354z"/>
		<path style="fill:#71331F;" d="M1473.487,793.354c0,0-1.462,26.18-15.574,40.757c-7.72,7.976-135.068,69.281-149.355,87.817
			c-14.282,18.536-9.637,178.34-9.637,178.34s22.485,13.535,49.666,10.401c33.42-3.847,40.424-13.476,40.424-13.476
			s-0.127-138.113,10.606-153.702c10.733-15.588,146.177-94.888,146.177-94.888l-14.034-36.146
			C1531.76,812.458,1499.862,811.724,1473.487,793.354z"/>
		<rect x="1497.499" y="466.934" style="fill:#804F3F;" width="103.633" height="75.297"/>
		<path style="fill:#EFA88B;" d="M1602.363,451.721c-8.472-29.396-45.534-29.396-45.534-29.396s-39.303-0.553-45.549,29.396
			c-13.155,62.971,12.25,100.661,31.727,100.661c21.89,0,40.057-17.693,50.226-26.424c8.97-7.715,3.04,0.952,6.217-6.458
			C1602.616,512.086,1610.818,481.102,1602.363,451.721z"/>
		<g>
			<path style="fill:#AE6E59;" d="M1509.813,550.299c-2.173-14.424-3.288-59.692-1.461-63.276c4.368-8.56,6.353-29.846,9.452-39.956
				c0,0,10.014,24.222,31.488,25.247c15.949,0.755,24.523,2.592,28.438,19.252c1.104,4.738,11.366-4.475,11.674-1.764
				c1.579,13.749-10.266,37.032-6.987,60.496h48.396c5.274-65.553,2.117-123.436-27.992-143.312
				c-59.79-39.473-92.637,3.128-92.637,3.128c-6.276,0-15.981,9.975-18.918,22.336c-10.358,43.619-3.528,104.613,2.719,117.848
				H1509.813z"/>
			<path style="fill:#C2C4C6;" d="M1514.78,441.91c-0.996,2.711-4.68,12.254-5.279,26.707c-0.592,14.217-1.203,18.387-1.203,18.387
				c4.404-8.492,6.407-29.807,9.505-39.936c0,0,8.438,19.866,26.387,24.572c-8.502-4.518-16.029-15.249-22.821-28.401
				c-6.64-12.865-8.57-30.204-11.186-33.123C1510.184,410.116,1515.776,439.207,1514.78,441.91z"/>
		</g>
		<g>
			<g>
				<path style="fill:#EEECEC;" d="M1525.991,523.364c2.015,5.681,7.389,9.771,13.752,9.771c6.377,0,11.722-4.09,13.749-9.771
					H1525.991z"/>
				<g>
					<g>
						<g>
							<path d="M1522.05,491.567c0,1.228-0.996,2.222-2.224,2.222c-1.218,0-2.212-0.994-2.212-2.222c0-1.228,0.994-2.22,2.212-2.22
								C1521.053,489.347,1522.05,490.339,1522.05,491.567z"/>
							
								<path style="fill:none;stroke:#3E211E;stroke-width:2.0595;stroke-linecap:round;stroke-linejoin:round;stroke-miterlimit:10;" d="
								M1522.05,481.128c0.26,0.112-5.63-2.441-9.24,3.057"/>
						</g>
						<g>
							<path d="M1555.698,491.567c0,1.228,0.994,2.222,2.212,2.222c1.232,0,2.226-0.994,2.226-2.222c0-1.228-0.994-2.22-2.226-2.22
								C1556.692,489.347,1555.698,490.339,1555.698,491.567z"/>
							
								<path style="fill:none;stroke:#3E211E;stroke-width:2.0595;stroke-linecap:round;stroke-linejoin:round;stroke-miterlimit:10;" d="
								M1555.698,481.128c0,0,5.69-2.387,9.233,3.057"/>
						</g>
					</g>
					
						<path style="fill:none;stroke:#D5D7D8;stroke-width:2.2374;stroke-linecap:round;stroke-linejoin:round;stroke-miterlimit:10;" d="
						M1535.216,512.65c0,0,0.767,1.545,4.646,1.545c3.851,0,4.402-1.545,4.402-1.545"/>
				</g>
			</g>
			<g>
				<g>
					<path style="fill:#EFA88B;" d="M1581.803,493.808c-0.74-4.18,2.042-8.182,6.251-8.935c4.183-0.753,8.192,2.036,8.943,6.234
						c0.758,4.187-2.039,8.197-6.229,8.955c-0.94,0.166-1.878,0.149-2.75-0.005"/>
				</g>
			</g>
		</g>
		<path style="fill:#813D28;" d="M1663.702,794.969c0,0-86.844,18.39-131.943,17.488c0,0-5.769,29.425-9.71,32.65
			c-20.129,16.451-124.481,72.906-130.408,94.557c-5.929,21.666,14.689,171.786,14.689,171.786s13.949,10.879,40.436,10.002
			c32.046-1.05,51.4-8.563,51.4-8.563s-19.33-139.367-9.576-144.149c9.749-4.782,175.689-12.607,168.5-121.573
			C1653.931,799.332,1663.702,794.969,1663.702,794.969z"/>
		<path style="fill:#F47A59;" d="M1512.683,581.005c0,0-18.421-0.007-29.064,1.647c-13.357,2.088-13.834,30.401-15.271,54.94
			c-8.399,45.064,4.775,107.604-3.152,169.616c-3.727,29.135-175.95,54.092-171.726,132.566c0,0,17.291-33.069,49.096-43.77
			c31.807-10.704,105.485-20.01,138.64-71.685c20.799-32.424,2.324-126.418,4.723-187.133
			C1487.353,601.14,1512.683,581.005,1512.683,581.005z"/>
		<path style="fill:#DB6E50;" d="M1661.091,867.473c12.635-81.21,3.893-209.457,3.893-247.496c0-33.975-20.96-36.723-20.96-36.723
			c-1.513-0.343-41.564-5.976-44.443-6.324c-2.889,3.113-28.623,47.328-13.201,126.221c20.923,107.015,5.888,138.793-19.564,163.302
			c-61.13,58.854-61.985,123.185-61.985,123.185C1535.216,964.551,1645.983,964.551,1661.091,867.473z"/>
	</g>
	<g>
		<path style="fill:#6C6FB4;" d="M1692.372,800.019c-40.886-22.185-102.818-9.576-102.818,99.914
			c0,18.643-10.606,28.45-21.873,39.201c-71.283,67.987-4.724,117.025,25.551,107.846c47.742-14.456,79.985-40.419,99.807-70.779
			C1747.677,892.516,1739.127,825.405,1692.372,800.019z"/>
		<path style="fill:#6164A2;" d="M1768.939,743.012l-129.965,50.903v0.034c17.661-6.027,37.186-2.726,53.398,6.071
			c46.755,25.386,55.305,92.496,0.668,176.181c-15.583,23.871-40.251,44.387-65.166,59.142l0,0c0,0,75.668-2.049,142.859-85.249
			c33.53-41.542,49.015-73.541,54.733-128.45C1828.958,788.046,1824.125,735.974,1768.939,743.012z"/>
	</g>
	<g>
		<path style="fill:#F47A59;" d="M1671.622,665.387c0.227-37.118-9.829-86.976-41.909-82.323
			c-28.431,4.109-20.06,43.564-19.071,82.323c0.982,38.772-3.576,97.307-0.629,113.76c0,0,1.506,14.801,28.962,14.801
			C1666.426,793.949,1671.386,702.52,1671.622,665.387z"/>
	</g>
	<path style="fill:#F1C3AC;" d="M1378.733,694.705l-9.279-2.112c0,0-8.947-11.651-22.299-25.637c-4.524-4.743-6.261,2.78-6.261,2.78
		c-6.324,16.202,20.093,29.963,20.093,29.963c5.995,4.132,6.109,4.536,11.937,7.776L1378.733,694.705z"/>
	<path style="fill:#F47E65;" d="M1383.193,688.632l-28.411,19.3c0,0,13.966,25.491,41.381,65.96
		c23.367,34.477,47.658,35.651,56.214,27.459c8.546-8.185,15.325-28.977-17.349-58.979
		C1415.125,724.086,1383.193,688.632,1383.193,688.632z"/>
	<g>
		<path style="fill:#3896A2;" d="M1360.163,637.214c-24.825-18.519-61.965-12.701-61.965-12.701l62.789,72.002
			c0,0,26.93-3.854,62.789,19.325L1360.163,637.214z"/>
		<path style="fill:#4CC4D2;" d="M1378.73,637.809c0,0,38.938-22.422,86.231-5.091l61.076,88.823c0,0-75.466-27.386-84.521-5.7
			L1378.73,637.809z"/>
		<path style="fill:#2C808A;" d="M1360.163,637.214l0.824-2.456c-24.818-18.538-62.789-13.293-62.789-13.293v3.047
			C1298.198,624.513,1335.338,618.696,1360.163,637.214z"/>
		<g>
			<polygon style="fill:#3998A3;" points="1464.961,629.673 1464.961,632.718 1526.037,721.54 1526.037,718.495 			"/>
		</g>
		<g>
			<path style="fill:#45B0BD;" d="M1464.961,629.673c-47.293-17.352-86.231,5.086-86.231,5.086v3.05c0,0,38.938-22.422,86.231-5.091
				V629.673z"/>
		</g>
		<path style="fill:#45B0BD;" d="M1360.163,637.214c0,0,12.319,7.401,18.568,0.595l62.786,78.031c0,0-4.746,5.975-17.742,0
			L1360.163,637.214z"/>
		<path style="fill:#3998A3;" d="M1360.163,637.214c0,0,12.312,7.401,18.561,0.595l0.01-2.982
			c-6.283,6.765-17.746-0.068-17.746-0.068l-0.824,2.395V637.214z"/>
		<path style="fill:#BEBFB8;" d="M1360.948,619.018c5.222,7.035,7.33,14.572,8.097,18.292c0.833-1.097,1.978-2.492,3.442-4.083
			L1360.948,619.018z"/>
		<path style="fill:#D3D4CB;" d="M1378.73,634.839v-0.08c0,0,37.147-21.284,82.925-6.146l-3.237-4.958
			c-54.041-26.908-82.927,5.07-89.558,13.881C1372.219,638.094,1375.953,637.809,1378.73,634.839z"/>
		<path style="fill:#CACCC3;" d="M1299.9,621.281c0.185-0.019,0.48-0.049,0.894-0.076c8.853-0.794,39.182-2.126,60.192,13.554
			c0,0,3.751,2.154,8.122,2.811c-1.754-8.794-11.415-42.08-56.535-31.797l0.404,4.2c0,0-4.39,0.412-8.351,2.387l-0.263,3.588
			c0,0-3.264,1.094-4.751,3.07v2.294c0,0,0.127-0.026,0.195-0.026C1299.844,621.281,1299.866,621.281,1299.9,621.281z"/>
	</g>
	<path style="fill:#F1C3AC;" d="M1483.436,698.437c-2.752-1.713-4.877-3.315-5.983-4.763c-8.865-11.501-16.553-8.925-23.703-22.833
		c-2.26-4.409-8.195-2.587-7.948,1.008c0.689,9.703,10.08,16.609,10.08,16.609s-7.199,0.624-23.612-14.667
		c-5.111-4.773-14.426,2.874-9.613,11.081c16.239,27.712,37.729,26.109,41.471,28.981c0,0,4.134,1.031,9.691,5.818L1483.436,698.437
		z"/>
	<path style="fill:#F1C3AC;" d="M1357.708,693.353c-2.974-3.737-2.256-15.157-8.899-23.218c-2.254-2.743-8.587-4.756-8.896,4.655"/>
	<path style="fill:#F47A59;" d="M1488.651,687.55l-23.386,34.516c0,0,53.137,42.095,98.311,63.885
		c51.693,24.935,76.243,15.883,82.426,5.783c11.629-19.004-19.296-38.326-56.689-55.381
		C1554.478,720.451,1488.651,687.55,1488.651,687.55z"/>
</g>
<g>
	<g>
		<path style="fill:#794C40;" d="M434.912,1002.174c17.98-6.426,14.989-39.249,14.989-39.249h41.778c0,0-2.987,32.823,15.001,39.249
			c1.725,0.626,22.314,29.276-15.001,29.276S433.597,1002.644,434.912,1002.174z"/>
		<path style="fill:#653D32;" d="M460.376,993.38c-13.135,12.567-22.843,7.586-22.843,7.586l-0.007-0.013
			c15.05-8.541,12.365-38.029,12.365-38.029h41.788c0,0-0.451,9.208,0.302,14.08C491.981,977.004,473.506,980.834,460.376,993.38z"
			/>
	</g>
	<path style="fill:#794C40;" d="M421.614,871.875c9.028-29.393,48.55-29.393,48.55-29.393s41.895-0.541,48.55,29.393
		c6.139,27.554,5.011,57.68-3.254,73.534c-11.856,22.753-21.564,27.135-33.242,27.135c-23.332,0-33.252-5.209-42.524-15.394
		C417.57,932.81,412.591,901.271,421.614,871.875z"/>
	<g>
		<path style="fill:#1C1311;" d="M519.742,933.58c0,0,8.546-33.997-6.12-47.571l0.015-0.027l7.51-32.297
			C546.548,870.966,527.83,921.736,519.742,933.58z"/>
		<path style="fill:#2C2422;" d="M499.05,891.419c-11.142,1.287-37.798-12.036-45.262,6.884c-3.729,9.472-5.539,11.603-8.506,13.169
			c-3.184,1.676-7.394,5.875-7.126,7.674c2.405,15.746-8.302,15.208,0.748,37.118c-34.411-21.91-38.357-96.043-3.02-122.764
			c26.528-20.054,79.268-17.354,85.263,20.185l-7.51,32.297C513.637,885.982,510.193,890.111,499.05,891.419z"/>
	</g>
	<g>
		<g>
			<path style="fill:#794C40;" d="M446.858,916.018c0-4.263-3.442-7.71-7.725-7.71c-4.248,0-7.705,3.447-7.705,7.71
				c0,4.256,3.457,7.72,7.705,7.72c0.96,0,1.883-0.171,2.707-0.499"/>
		</g>
	</g>
	<g>
		<g>
			<path style="fill:#EEECEC;" d="M505.372,942.975c-2.56,7.812-9.376,13.454-17.488,13.454c-8.095,0-14.923-5.642-17.483-13.454
				H505.372z"/>
			<g>
				<g>
					
						<path style="fill:none;stroke:#402320;stroke-width:3.1622;stroke-linecap:round;stroke-linejoin:round;stroke-miterlimit:10;" d="
						M506.548,904.267c-0.273,0.112,5.689-2.47,9.33,3.082"/>
					<g>
						<g>
							<path style="fill:#1E0D0A;" d="M508.789,910.995c2.105,0,3.824,1.712,3.824,3.827c0,2.097-1.72,3.815-3.824,3.815
								c-2.104,0-3.827-1.717-3.827-3.815C504.963,912.708,506.685,910.995,508.789,910.995z"/>
							<path style="fill:#1E0D0A;" d="M466.58,910.995c2.102,0,3.82,1.712,3.82,3.827c0,2.097-1.717,3.815-3.82,3.815
								c-2.112,0-3.822-1.717-3.822-3.815C462.758,912.708,464.469,910.995,466.58,910.995z"/>
						</g>
						
							<path style="fill:none;stroke:#402320;stroke-width:3.1622;stroke-linecap:round;stroke-linejoin:round;stroke-miterlimit:10;" d="
							M468.815,904.267c0,0-5.73-2.407-9.326,3.082"/>
					</g>
				</g>
				
					<path style="fill:none;stroke:#D5D7D8;stroke-width:2.2601;stroke-linecap:round;stroke-linejoin:round;stroke-miterlimit:10;" d="
					M494.592,933.163c0,0-0.782,1.562-4.687,1.562c-3.907,0-4.461-1.562-4.461-1.562"/>
			</g>
		</g>
	</g>
	<path style="fill:#003143;" d="M355.807,1283.284c3.415-3.215,45.778-52.74,50.153-58.742c4.38-6.002,7.415-23.293,7.415-23.293
		s21.932,15.607,66.085,12.075c36.531-2.923,41.81-12.075,41.81-12.075s4.134,15.561,12.422,21.617
		c8.287,6.046,78.503,24.134,91.933,26.926c14.721,3.059,23.503,10.589,23.758,11.04c-10.852-3.973-42.845,25.456-56.223,34.777
		c-12.243,8.519-23.907-13.513-44.248-2.166c-13.12-7.004-66.671-14.962-66.671-14.962l-65.225,28.087
		c-27.108-11.038-52.087-38.243-66.932-13.227C349.673,1292.2,350.053,1288.683,355.807,1283.284z"/>
	<path style="fill:#794C40;" d="M538.841,1180.242c-2.782-15.222-24.584-64.793-29.123-93.47l39.261,4.19l18.977,86.56
		L538.841,1180.242z"/>
	<g>
		<path style="fill:#A8ADBF;" d="M561.71,1116.094l-9.613-43.89c0,0,2.392-60.107-29.069-66.628
			c-16.348-3.403-21.742,21.408-17.907,62.302c1.055,11.24,7.384,54.672,7.384,54.672L561.71,1116.094z"/>
	</g>
	<path style="fill:#A8ADBF;" d="M403.587,1217.404c0,0-9.408-207.075,5.206-211.653c4.572-1.432,22-2.192,26.921-3.949
		c0,0,25.607,20.573,52.584,20.573c26.989,0,19.182-20.573,19.182-20.573s11.8,1.235,16.034,6.824
		c16.17,21.361,3.954,136.973,18.938,215.236c0,0-18.465,15.844-63.639,15.844C433.633,1239.706,403.587,1217.404,403.587,1217.404z
		"/>
	<path style="fill:#794C40;" d="M372.26,1173.96c1.803-15.432,7.46-64.18,11.501-92.889l36.316,15.481l-16.226,80.711
		L372.26,1173.96z"/>
	<g>
		<path style="fill:#B6BCCF;" d="M421.624,1119.447l5.978-44.168c0,0,12.77-66.377-10.039-69.778
			c-22.811-3.422-31.193,15.671-35.237,56.55c-1.115,11.225-6.305,54.879-6.305,54.879L421.624,1119.447z"/>
	</g>
	<path style="fill:#00465B;" d="M596.989,1262.446c-27.832,19.376-117.897,59.388-137.31,66.621
		c-22.321,8.312,27.31,17.827,27.31,17.827s174.546-18.285,173.273-65.198C659.429,1250.931,619.42,1246.826,596.989,1262.446z"/>
	<path style="fill:#003143;" d="M528.273,1337.123c1.949-7.357,13.462-9.466,22.193-7.162c18.913,4.974,34.996,0.066,41.568,11.644
		c6.568,11.573-16.029,25.325-55.083,12.589C527.42,1351.079,526.329,1344.484,528.273,1337.123z"/>
	<path style="fill:#003143;" d="M505.335,1337.123c-1.954-7.357-13.457-9.466-22.193-7.162
		c-18.908,4.974-34.998,0.066-41.566,11.644c-6.575,11.573,16.029,25.325,55.086,12.589
		C506.198,1351.079,507.289,1344.484,505.335,1337.123z"/>
	<path style="fill:#105972;" d="M538.918,1350.731c0,0-199.691,0.794-192.758-45.637c7.391-49.495,71.371-10.877,93.948-4.275
		c23.028,6.723,103.843,31.081,103.843,31.081s2.068,4.119,0.419,10.57C542.719,1348.921,538.918,1350.731,538.918,1350.731z"/>
	<g>
		<path style="fill:#794C40;" d="M567.956,1177.521c7.674,5.564,17.269,42.979,39.145,56.277c1.401,0.716,15.522,7.138,18.524,7.878
			c11.537,2.882,16.47,8.631,18.862,22.358c1.466,8.324-2.339,9.8-12.39,1.053c-4.064-3.549-12.543-5.708-18.441-7.255
			c0,0-6.531-0.867-10.543-5.81c-25.659-9.532-62.53-61.87-64.272-71.78C537.055,1170.067,550.921,1165.154,567.956,1177.521z"/>
		<path style="fill:#794C40;" d="M619.142,1253.509c0,0,1.998,4.682,6.063,9.291c3.364,3.808,0.704,6.67-2.806,4.736
			c-3.515-1.934-5.898-6.723-10.029-10.066"/>
	</g>
	<g>
		<path style="fill:#794C40;" d="M372.26,1173.96c-2.521,21.6-9.863,72.118-13.773,92.766c-0.75,1.393-26.451,23.644-15.008,44.75
			c3.51,7.686,7.479,6.751,10.809-6.148c1.344-5.223,7.108-11.805,11.096-16.419c0,0,4.894-4.412,5.406-10.758
			c15.756-22.382,32.148-91.999,33.169-102.016C405,1165.858,373.534,1163.076,372.26,1173.96z"/>
		<path style="fill:#794C40;" d="M358.413,1288.456c0,0,0.997,4.986,0.258,11.089c-0.609,5.035,3.189,5.893,4.999,2.312
			c1.802-3.581,1.045-8.879,2.558-13.971"/>
	</g>
</g>
<g>
	<g>
		<path style="fill:#EFA88B;" d="M598.745,1346.282c17.985-6.426,14.989-39.24,14.989-39.24h41.788c0,0-2.984,32.813,14.994,39.24
			c1.727,0.621,3.349,29.274-33.968,29.274C599.235,1375.556,597.432,1346.75,598.745,1346.282z"/>
		<path style="fill:#DB9A80;" d="M624.214,1337.493c-13.14,12.558-22.84,7.576-22.84,7.576l-0.01-0.007
			c15.064-8.534,12.37-38.019,12.37-38.019h41.788c0,0-0.385,7.819,0.312,14.068
			C655.833,1321.111,637.354,1324.938,624.214,1337.493z"/>
	</g>
	<path style="fill:#964636;" d="M700.471,1233.662c-1.496-16.763,2.263-19.574-5.047-38.112
		c-12.92-32.757-39.832-20.667-39.832-20.667c-12.431-7.547-49.695-13.33-62.286,13.802c-11.501,24.799-22.061,18.928-21.293,51.228
		c1.191,50.784,30.901,63.79,39.403,66.484c8.216,7.128,18.319,10.804,37.793,10.804c7.932,0,14.955-2.042,22.358-10.472
		l-0.01,0.029C671.555,1306.758,704.775,1281.932,700.471,1233.662z"/>
	<path style="fill:#EFA88B;" d="M547.99,1499.937l7.617-89.319l32.443,1.284c-4.558,27.052,5.425,131.509,2.984,146.308
		C580.56,1571.686,548.229,1512.612,547.99,1499.937z"/>
	<path style="fill:#F47A59;" d="M757.133,1556.015c0,0,0.214,3.9-14.621,11.164c-19.763,6.492-38.745,0.68-49.622-7.026h-90.289
		c-8.044,67.274,10.624,78.979,20.492,88.718c21.115,20.838,65.897,11.271,104.438-3.771c21.354-6.699,47.178-17.155,62.394-31.705
		c0-0.012,0.013-0.012,0.013-0.012l0.002-0.013c8.146-7.795,13.254-16.767,12.976-26.971
		C802.073,1555.633,779.281,1552.743,757.133,1556.015z"/>
	<path style="fill:#C96549;" d="M742.512,1567.179c14.828-7.259,14.621-11.147,14.621-11.147
		c-11.62,1.703-23.055,5.116-31.074,7.086c-4.088,1.003-10.178,2.584-17.401,4.487
		C718.515,1570.492,730.359,1571.172,742.512,1567.179z"/>
	<path style="fill:#E17152;" d="M623.093,1648.872c-9.868-9.74-28.536-21.445-20.492-88.718h-34.814
		c-7.525,32.843-12.628,56.424,13.138,76.991c13.946,11.149,31.854,15.495,48.782,16.728
		C627.332,1652.44,625.078,1650.835,623.093,1648.872z"/>
	<g>
		<path style="fill:#E1C2B2;" d="M583.951,1463.529l5.978-44.178c0,0,17.204-71.812-5.8-70.158
			c-25.82,1.839-35.432,16.073-39.476,56.944c-1.121,11.223-6.307,54.877-6.307,54.877L583.951,1463.529z"/>
	</g>
	<path style="fill:#D7B9AA;" d="M562.031,1566.471c0,0,3.284-30.967,3.284-81.371c0-50.387,0.924-116.221,9.608-128.825
		c2.926-4.234,7.842-11.408,23.113-10.38h71.768c0,0,11.797,1.216,16.036,6.812c16.17,21.359,3.888,188.722,21.978,213.045
		c0,0-5.023,32.633-74.988,35.264C562.87,1603.664,562.031,1566.471,562.031,1566.471z"/>
	<path style="fill:#C96549;" d="M564.479,1575.277c-2.355-5.045-2.448-8.806-2.448-8.806s0.497-4.736,1.101-13.432
		c-8.721,3.288-15.32,10.967-17.413,25.924c-2.141,15.271,6.796,28.275,19.717,38.894
		C560.056,1605.423,561.228,1591.557,564.479,1575.277z"/>
	<path style="fill:#EFA88B;" d="M716.902,1507.246l-8.743-83.722l-34.188,1.235c2.066,43.666,5.33,78.757,12.77,95.955
		C698.917,1532.68,718.352,1519.838,716.902,1507.246z"/>
	<path style="fill:#EFA88B;" d="M696.832,1529.567c8.57,4.053,59.985,16.767,82.153,29.564c1.315,0.877,5.062,6.014,7.717,7.581
		c8.224,4.848,7.917,2.326,14.149,14.772c4.833,9.669,13.985,3.343,7.856-11.585c-3.437-8.363-13.735-16.482-18.782-20.002
		c-20.699-17.903-79.763-54.199-89.794-54.925C685.977,1493.962,677.801,1520.568,696.832,1529.567z"/>
	<g>
		<path style="fill:#E1C2B2;" d="M716.997,1460.778l-2.575-44.494c0,0,2.575-61.064-29.074-66.63
			c-24.426-4.29-21.734,21.415-17.9,62.308c1.057,11.233,4.302,55.067,4.302,55.067L716.997,1460.778z"/>
	</g>
</g>
<g>
	<path style="fill:#F1C3AC;" d="M1749.96,1486.196l-7.618-89.312l-32.443,1.284c4.555,27.057-5.425,131.497-2.979,146.31
		C1717.393,1557.969,1749.718,1498.868,1749.96,1486.196z"/>
	<g>
		<path style="fill:#979CAC;" d="M1708.942,1433.619l43.578-5.615c-4.034-8.609-4.387-18.76-4.838-23.306
			c-3.759-37.924-10.416-56.704-31.583-53.524c-21.162,3.16-9.321,64.759-9.321,64.759L1708.942,1433.619z"/>
	</g>
	<path style="fill:#A8ADBF;" d="M1725.256,1513.131c0,0,11.666-157.477-1.876-161.711c-4.258-1.34-10.158-2.042-14.723-3.667
		h-66.592c0,0-10.942,1.138-14.872,6.336c-15.008,19.815-7.637,77.69-9.516,159.041c0,0,3.939,21.486,45.854,21.486
		C1705.456,1534.617,1725.256,1513.131,1725.256,1513.131z"/>
	<path style="fill:#F1C3AC;" d="M1581.043,1493.524l17.505-78.781l31.985,5.598c-8.132,26.207-15.62,69.795-23.055,86.995
		C1595.306,1519.304,1579.603,1506.11,1581.043,1493.524z"/>
	<path style="fill:#DBB19E;" d="M1601.384,1643.658c0,0-107.621-24.065-106.347-70.991c1.277-46.908,53.551-29.008,76.857-23.284
		c23.303,5.73,110.825,29.766,110.825,29.766L1601.384,1643.658z"/>
	<path style="fill:#F1C3AC;" d="M1540.822,1542.288c0,0-0.314,4.611,18.95,13.203c13.028,5.812,76.223,21.605,88.413,30.024
		c19.6,13.535-27.897,20.032-5.218,25.159l-41.583,32.984c0,0-107.621-24.065-106.347-70.991
		C1495.874,1541.898,1518.659,1539.016,1540.822,1542.288z"/>
	<path style="fill:#F1C3AC;" d="M1595.683,1517.979c-8.565,4.056-54.547,14.631-76.72,27.408c-1.311,0.894-5.057,6.019-7.715,7.598
		c-8.221,4.843-7.917,2.329-14.151,14.775c-4.831,9.646-13.983,3.323-7.859-11.598c3.44-8.363,13.739-16.477,18.787-19.977
		c20.699-17.917,81.802-48.877,91.826-49.603C1614,1485.575,1614.714,1508.983,1595.683,1517.979z"/>
	<path style="fill:#F1C3AC;" d="M1663.05,1637.308c0,0,95.685-25.61,89.176-72.097c-6.497-46.46-56.458-22.845-78.974-14.558
		c-22.521,8.29-106.815,41.944-106.815,41.944L1663.05,1637.308z"/>
	<g>
		<g>
			<path style="fill:#004155;" d="M1520.807,1605.586c-3.832-6.236-2.545-22.714,4.324-31.264
				c14.877,5.196,84.296-12.848,93.159-46.884c7.059,0.129,8.441,0.256,15.498,0.383
				C1626.574,1569.822,1545.267,1587.484,1520.807,1605.586z"/>
			<path style="fill:#004155;" d="M1727.041,1624.195c-5.732,2.935-23.958,9.537-38.993,13.113
				c-2.694-22.443,11.162-29.52,15.941-108.275c7.698,0.146,14.299-1.615,21.997-1.481
				C1734.82,1570.655,1753.543,1585.413,1727.041,1624.195z"/>
		</g>
		<g>
			<path style="fill:#004155;" d="M1592.955,1639.576c-10.943,4.083-45.595-5.384-56.475-15.381
				c27.047-20.154,98.774-60.45,108.46-96.199c1.749-6.406,13.815,0.256,20.711,0.378
				C1658.406,1598.616,1639.317,1605.223,1592.955,1639.576z"/>
			<path style="fill:#004155;" d="M1631.488,1646.207c-5.749-0.195-28.273-1.591-33.595-4.056
				c46.945-34.762,66.871-42.445,74.228-113.673c6.906,0.122,13.808,0.251,20.711,0.375
				C1688.421,1600.874,1674.65,1608.886,1631.488,1646.207z"/>
		</g>
		<path style="fill:#105972;" d="M1608.726,1646.207c-1.885,0-30.353-1.627-37.276-7.403
			c33.907-24.294,87.709-60.998,83.904-109.677c6.015,0.097,17.522-0.629,23.542-0.531
			C1672.993,1599.104,1654.005,1609.269,1608.726,1646.207z"/>
		<g>
			<path style="fill:#105972;" d="M1536.48,1624.195c-19.237-8.066-21.58-21.971-19.664-32.516
				c51.164-4.244,109.487-33.625,111.09-63.977c0.438-8.17,11.61,1.554,20.278,1.688
				C1642.66,1570.882,1594.027,1618.012,1536.48,1624.195z"/>
			<path style="fill:#105972;" d="M1698.148,1637.308c-16.548,3.729-50.084,11.449-66.659,8.899
				c46.302-39.827,48.974-44.307,53.795-117.502c8.192,0.149,22.714-6.948,24.582,0.429
				C1722.508,1579.194,1730.308,1606.853,1698.148,1637.308z"/>
		</g>
		<g>
			<path style="fill:#105972;" d="M1525.455,1580.166c-0.124-8.731,17.435-28.38,25.727-30.782
				c35.145,18.904,62.004-6.007,65.485-16.903c0.996-3.128,2.516-4.256,5.832-3.851
				C1619.837,1555.048,1575.026,1582.872,1525.455,1580.166z"/>
		</g>
	</g>
	<path style="fill:#1C6E8B;" d="M1727.041,1534.556c0,0-18.277,17.737-70.481,14.421c-35.415-2.26-41.647-14.36-41.647-14.36
		l2.765-21.486c0,0,5.284,9.165,41.81,12.095c44.148,3.525,66.085-12.095,66.085-12.095L1727.041,1534.556z"/>
	<g>
		<path style="fill:#B6BCCF;" d="M1590.509,1429.612l44.935,10.078c0,0,2.947-23.469,3.83-27.098
			c8.955-37.045,14.757-57.505-8.166-59.602c-25.788-2.353-34.124,55.215-34.124,55.215S1594.855,1422.908,1590.509,1429.612z"/>
	</g>
	<g>
		<path style="fill:#9F6E6A;" d="M1467.697,1232.518c0,0,22.282,6.567,73.824,0.243c59.785-7.335,61.176-46.55,96.394-60.224
			c37.963-14.73,65.183,7.713,65.183,7.713s31.113,7.676,32.175,41.7c1.058,34.048,2.962,50.611,4.906,73.237
			c3.043,35.722,7.24,54.964-10.409,72.321c-0.197,0.207-17.323,2.529-17.527,2.736c-8.046,2.287-16.499,1.903-24.187,0.463
			c-3.033,2.197-6.244,3.815-9.647,4.602c-38.404,9.011-114.286-6.463-135.404-21.654c0.567-0.826,1.072-1.629,1.615-2.46
			c-6.616-2.921-12.989-6.397-18.991-10.504c-23.323-15.976-38.767-39.079-39.432-66.628c23.62-16.872,44.665-25.013,44.665-25.013
			C1471.241,1263.209,1467.697,1232.518,1467.697,1232.518z"/>
		<g>
			<path style="fill:#C2C4C6;" d="M1680.282,1230.376c0,0-0.765-12.738,0.482-17.318c2.777-10.085,19.917-28.631,22.333-32.809
				C1700.082,1185.643,1683.6,1206.14,1680.282,1230.376z"/>
			<path style="fill:#C2C4C6;" d="M1614.353,1267.041c2.38-21.965,8.141-31.266,16.787-35.14c0,0-9.189,5.883-12.996,30.109
				c-2.743,17.435-7.596,38.847-10.903,51.515C1607.269,1313.338,1611.973,1288.912,1614.353,1267.041z"/>
			<path style="fill:#C2C4C6;" d="M1712.243,1307.019c0,0-9.082,28.582-15.771,39.709c-6.692,11.155-9.057,13.031-9.057,13.031
				s16.891-13.092,20.609-24.568C1711.741,1323.72,1712.243,1307.019,1712.243,1307.019z"/>
			<path style="fill:#C2C4C6;" d="M1501.887,1318.29c-1.13-1.505-2.198-3.037-3.228-4.611c1.508-0.536,3.067-1.06,4.694-1.518
				c22.733-6.531,42.679-14.306,42.679-14.306s-18.49,11.61-33.929,16.423C1508.678,1315.355,1505.253,1316.724,1501.887,1318.29z"
				/>
			<path style="fill:#C2C4C6;" d="M1612.022,1208.751c0,0,7.557-10.587,16.626-13.094c9.067-2.516,16.107-13.598,28.207-12.088
				c12.065,1.515,12.329,7.557,12.329,7.557s-10.719-5.043-27.951,1.769C1629.335,1197.573,1618.826,1208.242,1612.022,1208.751z"/>
			<path style="fill:#C2C4C6;" d="M1488.337,1290.091c-0.434-1.815-0.818-3.657-1.135-5.537
				c9.925-6.762,23.978-14.821,40.798-20.277c26.538-8.599,52.406-21.795,52.406-21.795s-21.464,18.322-41.678,26.853
				C1524.374,1275.382,1504.449,1283.513,1488.337,1290.091z"/>
		</g>
	</g>
</g>
<g>
	<g>
		<path style="fill:#EFA88B;" d="M978.559,1377.001c16.697-5.949,13.91-42.73,13.91-42.73l38.774,6.317
			c0,0-2.772,30.465,13.917,36.414c1.6,0.573,20.711,27.174-13.917,27.174C996.609,1404.175,977.345,1377.442,978.559,1377.001z"/>
		<path style="fill:#E09E83;" d="M1002.193,1368.838c-12.19,11.664-21.191,7.047-21.191,7.047l-0.009-0.012
			c13.966-7.919,11.471-41.602,11.471-41.602l38.779,6.317c0,0-0.572,6.736,0.29,13.062
			C1031.532,1353.649,1014.383,1357.196,1002.193,1368.838z"/>
	</g>
	<g>
		<path style="fill:#AE6E59;" d="M1084.249,1233.511c-2.936-12.356-12.643-22.334-18.921-22.334c0,0-32.85-42.609-92.635-3.128
			c-30.114,19.878-33.271,77.765-27.995,143.319c0,0,15.613,4.746,65.683,8.816c50.073,4.049,71.142-8.816,71.142-8.816
			C1087.773,1338.121,1094.601,1277.135,1084.249,1233.511z"/>
		<path style="fill:#C2C4C6;" d="M1062.078,1234.329c3.554-9.5,3.25-23.152,3.25-23.152c-2.302,2.568-6.638,26.748-11.554,38.76
			C1053.774,1249.938,1058.521,1243.816,1062.078,1234.329z"/>
	</g>
	<path style="fill:#EFA88B;" d="M940.547,1515.46l7.62-89.329l32.443,1.284c-4.56,27.057,5.422,131.504,2.991,146.306
		C973.121,1587.211,940.791,1528.132,940.547,1515.46z"/>
	<g>
		<path style="fill:#979CAC;" d="M981.57,1462.864l-43.583-5.618c4.032-8.604,4.392-18.75,4.838-23.303
			c3.754-37.927,10.417-56.694,31.588-53.515c21.159,3.165,9.32,64.745,9.32,64.745L981.57,1462.864z"/>
	</g>
	<path style="fill:#A8ADBF;" d="M965.253,1542.395c0,0-11.674-157.478,1.873-161.721c4.251-1.332,10.16-2.036,14.725-3.673h66.582
		c0,0,10.953,1.137,14.884,6.332c14.999,19.819,7.635,77.695,9.501,159.063c0,0-3.927,21.483-45.848,21.483
		S965.253,1542.395,965.253,1542.395z"/>
	<path style="fill:#EFA88B;" d="M1109.466,1522.766l-17.5-78.774l-31.99,5.584c8.122,26.212,15.62,69.807,23.055,87.018
		C1095.205,1548.556,1110.913,1535.35,1109.466,1522.766z"/>
	<path style="fill:#D1937B;" d="M1089.123,1672.898c0,0,107.624-24.058,106.355-70.976c-1.282-46.915-53.556-29.018-76.857-23.291
		c-23.303,5.729-110.832,29.766-110.832,29.766L1089.123,1672.898z"/>
	<path style="fill:#EFA88B;" d="M1149.69,1571.535c0,0,0.317,4.597-18.952,13.203c-13.025,5.82-76.221,21.598-88.411,30.031
		c-19.598,13.515,27.888,20.017,5.215,25.152l41.581,32.977c0,0,107.624-24.058,106.355-70.976
		C1194.632,1571.148,1171.846,1568.266,1149.69,1571.535z"/>
	<path style="fill:#EFA88B;" d="M1094.826,1547.231c8.56,4.037,54.548,14.619,76.715,27.412c1.311,0.88,5.065,6.02,7.723,7.586
		c8.221,4.841,7.917,2.327,14.143,14.779c4.836,9.652,13.988,3.335,7.854-11.593c-3.432-8.355-13.73-16.494-18.772-19.995
		c-20.704-17.909-81.799-48.872-91.834-49.6C1076.512,1514.807,1075.788,1538.239,1094.826,1547.231z"/>
	<path style="fill:#EFA88B;" d="M1027.453,1666.562c0,0-95.675-25.61-89.176-72.09c6.504-46.484,56.46-22.859,78.978-14.567
		c22.521,8.292,106.818,41.951,106.818,41.951L1027.453,1666.562z"/>
	<g>
		<g>
			<path style="fill:#004155;" d="M1169.7,1634.825c3.834-6.236,2.553-22.689-4.322-31.259c-14.87,5.193-84.297-12.85-93.159-46.887
				c-7.055,0.146-8.441,0.249-15.498,0.388C1063.937,1599.065,1145.242,1616.738,1169.7,1634.825z"/>
			<path style="fill:#004155;" d="M963.475,1653.444c5.725,2.933,23.951,9.522,38.994,13.118
				c2.686-22.443-11.179-29.522-15.944-108.265c-7.706,0.122-14.3-1.625-22.01-1.498
				C955.687,1599.895,936.961,1614.67,963.475,1653.444z"/>
		</g>
		<g>
			<path style="fill:#004155;" d="M1097.561,1668.835c10.935,4.063,45.588-5.384,56.457-15.391
				c-27.037-20.149-98.752-60.458-108.45-96.187c-1.747-6.427-13.812,0.229-20.711,0.358
				C1032.108,1627.856,1051.194,1634.482,1097.561,1668.835z"/>
			<path style="fill:#004155;" d="M1059.016,1675.454c5.756-0.188,28.278-1.596,33.598-4.061
				c-46.938-34.769-66.869-42.431-74.223-113.653c-6.901,0.124-13.815,0.224-20.714,0.355
				C1002.088,1630.119,1015.854,1638.129,1059.016,1675.454z"/>
		</g>
		<path style="fill:#105972;" d="M1081.786,1675.454c1.878,0,30.355-1.627,37.279-7.411c-33.91-24.267-87.707-60.995-83.902-109.682
			c-6.015,0.105-17.527-0.614-23.546-0.519C1017.521,1628.358,1036.505,1638.516,1081.786,1675.454z"/>
		<g>
			<path style="fill:#105972;" d="M1154.019,1653.444c19.247-8.061,21.591-21.978,19.676-32.524
				c-51.172-4.239-109.495-33.632-111.09-63.968c-0.436-8.182-11.608,1.542-20.278,1.683
				C1047.854,1600.136,1096.48,1647.271,1154.019,1653.444z"/>
			<path style="fill:#105972;" d="M992.356,1666.562c16.551,3.712,50.095,11.447,66.659,8.891
				c-46.294-39.81-48.974-44.307-53.792-117.497c-8.192,0.139-22.709-6.94-24.575,0.431
				C968.006,1608.453,960.201,1636.094,992.356,1666.562z"/>
		</g>
		<g>
			<path style="fill:#105972;" d="M1165.056,1609.405c0.127-8.711-17.434-28.358-25.724-30.774
				c-35.152,18.916-62.012-6.003-65.493-16.909c-0.996-3.106-2.514-4.244-5.829-3.854
				C1070.665,1584.317,1115.488,1612.136,1165.056,1609.405z"/>
		</g>
	</g>
	<path style="fill:#1C6E8B;" d="M963.475,1563.806c0,0,18.271,17.734,70.475,14.411c35.415-2.246,41.647-14.338,41.647-14.338
		l-2.777-21.483c0,0-5.271,9.14-41.802,12.065c-44.146,3.554-66.077-12.065-66.077-12.065L963.475,1563.806z"/>
	<g>
		<path style="fill:#B6BCCF;" d="M1100.002,1458.874l-44.942,10.056c0,0-2.936-23.457-3.825-27.099
			c-8.96-37.045-14.757-57.5,8.161-59.582c25.795-2.353,34.124,55.198,34.124,55.198S1095.651,1452.15,1100.002,1458.874z"/>
	</g>
</g>
</svg>
