<?xml version="1.0" encoding="UTF-8" standalone="no"?><!DOCTYPE svg PUBLIC "-//W3C//DTD SVG 1.1//EN" "http://www.w3.org/Graphics/SVG/1.1/DTD/svg11.dtd"><svg width="100%" height="100%" viewBox="0 0 134 133" version="1.1" xmlns="http://www.w3.org/2000/svg" xmlns:xlink="http://www.w3.org/1999/xlink" xml:space="preserve" xmlns:serif="http://www.serif.com/" style="fill-rule:evenodd;clip-rule:evenodd;stroke-linejoin:round;stroke-miterlimit:1.41421;"><g><g><circle cx="67" cy="66.741" r="66.214" style="fill:#2b2b3f;"/><circle cx="67" cy="66.741" r="55.665" style="fill:none;stroke:#fff;stroke-opacity:0.45;stroke-width:2px;"/><g><g><path d="M72.127,105.011c-0.511,-0.203 -1.048,-0.395 -1.611,-0.574c-2.344,-0.781 -18.555,-5.469 -23.633,-6.055c0,0 1.171,-1.757 1.171,-2.148c0,-0.586 -0.195,-2.539 -1.367,-3.32c-10.352,-6.055 -14.453,-11.915 -17.774,-19.923c-3.32,-8.203 -6.64,-16.211 1.172,-27.734c3.907,-5.665 11.719,-10.352 16.407,-11.329c8.008,-7.617 26.563,-8.789 38.282,-4.687c7.031,2.344 13.672,4.687 18.164,9.57c9.57,10.547 4.297,20.313 0.391,23.047c-0.977,0.782 -1.758,1.758 -1.758,2.93c0,2.149 -0.195,2.93 2.539,6.055c2.148,2.344 3.32,3.516 -0.195,6.445c-0.391,0.391 -0.391,0.977 -0.196,1.563c0.196,0.781 0.196,1.172 0.391,1.758c0.195,0.39 0.781,0.976 0.195,1.953c-0.195,0.39 -0.781,2.148 -1.172,2.93c0.782,0.586 0.977,2.148 0,2.539c-1.367,0.586 -1.953,1.562 -2.148,3.125c-0.586,5.078 -6.055,6.055 -10.352,6.25c-3.32,0.195 -4.883,0.586 -6.25,2.539c-0.391,0.781 -1.172,2.539 -1.367,3.125c-2.344,5.273 -0.391,11.914 -0.781,11.133c-0.705,-1.232 -2.678,-5.955 -9.353,-8.877l1.149,0.478c-0.195,-1.953 0.782,-4.101 1.172,-4.687c1.367,-2.735 3.321,-2.539 4.493,-2.735c1.367,-0.195 5.078,-0.586 6.054,-0.781c3.321,-0.781 4.688,-2.734 5.078,-5.078c0.391,-1.758 0.782,-4.297 1.368,-4.688c-1.368,0.782 -1.953,2.735 -2.149,4.102c-0.39,2.539 -1.367,4.297 -4.492,5.078c-0.977,0.196 -4.688,0.781 -5.859,0.781c-1.954,0 -3.711,0.782 -5.469,2.93c-0.782,0.977 -1.563,2.735 -2.539,4.102l0.439,0.183Zm13.819,-36.902c0.586,0.585 1.757,0.585 1.953,1.171c0.39,0.782 1.367,2.735 1.562,3.125c0.391,0.196 0.586,0.586 0.586,1.368l0,2.539c0,2.539 1.563,2.929 2.149,1.953c0.39,1.172 0.39,5.664 -0.782,6.836c-0.781,0.586 -1.953,1.562 -2.734,2.148c1.758,-3.125 1.758,-4.101 0.781,-7.617c-0.586,-1.953 -2.734,-5.859 -3.32,-6.641c-0.586,-0.781 -0.781,-2.929 -0.195,-3.32c-0.196,-0.195 -0.391,-0.195 -0.586,-0.586c0.39,0.195 0.781,-0.195 0.39,-0.586c-0.39,-0.39 -1.367,-1.172 -1.367,-1.172c0.586,0.196 1.563,0.782 1.563,0.782Zm6.836,17.383l1.562,-1.172c-0.195,0.586 -0.39,0.976 -0.195,1.758l-1.367,-0.586Zm-0.391,-0.782c0.391,-0.586 1.563,-1.562 1.758,-1.953c0.195,-0.586 0.195,-1.172 -0.195,-1.953c-0.586,-0.781 -0.977,-2.148 -0.391,-3.516c-0.195,1.563 0.391,2.539 0.781,3.125c0.391,0.586 1.367,2.149 0.391,2.539c-0.586,0.586 -1.953,1.368 -2.344,1.758Zm-24.61,-51.954c5.664,1.368 11.915,5.079 14.844,9.962c4.102,6.25 5.86,10.937 5.86,16.015c0,0.391 0.39,0.391 0.586,0.196c0.195,-0.196 0.586,0 0.781,0.39c0.195,0.586 0.781,0.977 0.781,1.563c0.391,-0.195 1.758,0.195 1.172,1.758c-1.367,2.929 -1.367,6.445 0.781,7.812c3.125,1.953 3.711,3.907 2.735,4.688c-0.196,-1.367 -1.367,-3.125 -2.93,-4.102c-1.953,-1.367 -3.125,-4.101 -2.148,-6.445c1.367,-3.516 -0.196,-3.711 -1.368,-3.321c-0.781,0.196 -3.515,0.782 -4.297,1.563c0.586,-1.367 1.368,-2.93 1.563,-3.516c0.195,-0.39 0.391,-0.586 0.781,0.196c0.391,0.586 0.586,0.976 0.781,1.562c1.563,-4.492 -2.343,-12.5 -5.859,-17.969c-2.734,-5.078 -9.18,-8.984 -14.063,-10.352Zm19.532,32.423c1.758,2.93 -0.977,3.711 -1.758,0.781c0.781,1.172 2.148,0.977 1.758,-0.781Zm-3.516,1.172c0.586,-2.149 2.93,-3.711 4.883,-4.297c1.758,-0.586 2.539,0.976 -0.391,1.562c-0.976,0.391 -2.929,0.782 -4.492,2.735Zm-33.594,-33.985c8.398,-3.516 17.774,-2.735 26.758,-0.196c9.961,2.93 17.383,9.376 18.36,17.188c0.976,7.618 -0.391,9.375 -2.93,8.985c0,0 0,-8.789 -2.148,-11.915c1.171,3.516 1.757,8.79 0.781,11.133c0,-2.734 -2.735,-11.523 -5.664,-14.648c2.343,3.515 3.515,7.422 3.711,10.352c-0.977,-3.126 -2.93,-8.204 -6.836,-12.501c-5.079,-5.468 -8.204,-7.812 -16.212,-9.375c-5.273,-1.172 -12.304,0.196 -15.82,0.977Z" style="fill:#fff;"/><path d="M48.836,104.047c0.586,0 0.586,0 0.586,0.585l0,2.344c0,0.391 0,0.391 -0.586,0.391l0,0.195l1.562,0l0,-0.195c-0.586,0 -0.586,0 -0.586,-0.391l0,-0.976l0.586,0c0.586,0.976 0.977,1.562 1.172,1.562l0.586,0c-0.195,-0.195 -0.586,-0.586 -0.781,-0.781l-0.586,-0.781c0.39,-0.196 0.781,-0.586 0.781,-0.977c0,-0.586 -0.586,-0.976 -1.172,-0.976l-1.562,0Zm1.172,0l0.39,0c0.391,0 0.781,0.195 0.781,0.781c0,0.586 -0.195,0.976 -0.781,0.976l-0.39,0l0,-1.757Zm3.906,1.757c0,-1.953 -1.563,-3.515 -3.516,-3.515c-1.953,0 -3.515,1.562 -3.515,3.515c0,1.954 1.562,3.516 3.515,3.516c1.953,0 3.516,-1.562 3.516,-3.516m-0.586,0c0,1.563 -1.367,3.125 -2.93,3.125c-1.562,0 -2.93,-1.367 -2.93,-3.125c0,-1.562 1.368,-3.125 2.93,-3.125c1.758,0 2.93,1.368 2.93,3.125" style="fill:#fff;"/></g></g></g></g></svg>